<svg width="91" height="186" viewBox="0 0 91 186" fill="none" xmlns="http://www.w3.org/2000/svg">
<g filter="url(#filter0_i_1098_8764)">
<path d="M32.4204 109.947C31.4585 109.958 30.4967 109.967 29.5348 109.98C24.8022 110.046 20.0646 110.007 15.3394 110.23C13.4188 110.321 11.5358 110.287 9.77741 109.66C8.2946 109.132 6.8898 108.259 5.61116 107.319C4.36876 106.406 3.08105 105.374 2.27133 104.103C1.41653 102.761 0.858584 101.112 0.608715 99.5288C0.201933 96.9505 0.000310327 94.3162 1.09249e-05 91.7055C-0.000209991 89.7829 -0.00447401 87.7898 0.888208 85.9615C1.07952 85.5696 1.04634 85.0721 1.14104 84.6285C1.61112 82.4267 2.73146 80.627 4.49577 79.2259C4.87882 78.9218 5.25875 78.6112 5.61723 78.2789C7.71162 76.3375 10.2559 75.9002 13.002 75.9026C38.4609 75.9252 63.9199 75.916 89.3789 75.916C89.7396 75.916 90.1004 75.9159 90.5241 75.9159C90.5241 87.2676 90.5241 98.5658 90.5241 109.975C74.2047 109.975 57.8868 109.975 41.4791 109.89C41.964 108.69 42.4868 107.544 43.1261 106.467C44.0176 104.966 44.9009 103.444 45.956 102.059C48.8717 98.231 49.6948 94.0221 47.8167 89.6222C45.3857 83.9272 40.3513 81.7901 34.8522 82.5956C30.4078 83.2466 27.199 86.0594 25.598 90.4007C24.9812 92.0731 24.8572 93.8135 25.0146 95.61C25.1874 97.5831 25.8411 99.4378 27.0076 100.888C28.5585 102.816 29.8439 104.862 30.9818 107.028C31.486 107.988 31.9423 108.973 32.4204 109.947Z" fill="#E9AF43"/>
<path d="M76.6433 51.2147C81.3177 51.2147 85.8925 51.2147 90.5273 51.2147C90.5273 58.8541 90.5273 66.4339 90.5273 74.123C90.1316 74.123 89.7449 74.123 89.3581 74.123C64.8977 74.123 40.4374 74.123 15.977 74.123C14.8141 74.123 13.651 74.1365 12.4884 74.1183C11.6927 74.1058 11.2979 73.6798 11.3026 72.8734C11.3107 71.4731 11.2791 70.0722 11.3104 68.6726C11.3621 66.3582 11.5784 64.0714 12.4505 61.8867C13.1886 60.0378 14.1813 58.359 15.5063 56.8703C17.3788 54.7664 19.7603 53.4887 22.3105 52.3777C24.4962 51.4256 26.7287 51.2063 29.0501 51.2081C44.8813 51.2206 60.7125 51.2147 76.6433 51.2147Z" fill="#E9AF43"/>
<path d="M40.2169 112.405C40.4815 112.393 40.7462 112.372 41.0108 112.372C57.2094 112.37 73.408 112.37 89.6066 112.37C89.8984 112.37 90.1901 112.37 90.5343 112.37C90.5343 119.626 90.5343 126.808 90.5343 134.083C90.179 134.083 89.8565 134.083 89.5339 134.083C71.0449 134.083 52.5559 134.1 34.067 134.066C31.3399 134.06 28.613 133.822 25.8869 133.676C25.6387 133.662 25.3805 133.559 25.1551 133.443C23.8768 132.785 22.5425 132.209 21.3499 131.419C19.6931 130.322 18.3331 128.934 17.1844 127.242C16.0857 125.623 15.3673 123.903 14.7798 122.094C14.2174 120.362 13.7151 118.622 13.8722 116.744C13.9854 115.39 13.8807 114.019 13.9 112.657C13.9103 111.932 14.2126 111.798 14.8503 112.189C15.1269 112.359 15.5333 112.363 15.8809 112.363C21.7228 112.374 27.5648 112.372 33.5088 112.461C34.496 114.019 34.4388 115.657 34.3882 117.322C33.8803 117.829 33.9429 118.278 34.5864 118.315C35.9722 118.394 37.3676 118.38 38.7549 118.315C39.2241 118.293 39.794 118.067 39.3375 117.268C39.3163 115.527 39.4109 113.902 40.2169 112.405ZM34.2666 119.171C33.7968 119.646 33.8905 120.073 34.5354 120.106C35.9755 120.178 37.4245 120.181 38.8639 120.103C39.454 120.07 39.9115 119.716 39.0606 119.019C37.5079 119.045 35.9552 119.072 34.2666 119.171ZM37.4576 120.934C36.7334 120.935 36.0049 120.889 35.2872 120.957C35.0037 120.984 34.744 121.263 34.4735 121.427C34.7569 121.596 35.0304 121.885 35.3257 121.91C36.1431 121.977 36.9715 121.966 37.7917 121.919C38.1793 121.897 38.5582 121.722 38.941 121.617C38.9469 121.473 38.9529 121.329 38.9589 121.185C38.5196 121.102 38.0804 121.018 37.4576 120.934Z" fill="#E9AF43"/>
<path d="M56.3245 49.4218C46.4978 49.4218 36.7708 49.4221 27.0437 49.4216C25.8945 49.4215 25.6285 49.2367 25.6646 48.0671C25.7323 45.8767 25.6719 43.6859 26.1875 41.5094C26.6213 39.6783 27.274 37.9836 28.0629 36.2774C29.2103 33.7957 31.0366 31.8973 33.0556 30.2713C34.9859 28.7167 37.3283 27.7086 39.9408 27.7086C56.377 27.7088 72.8133 27.7087 89.2496 27.7087C89.6464 27.7087 90.0432 27.7087 90.5137 27.7087C90.5137 34.9238 90.5137 42.1067 90.5137 49.4218C79.1678 49.4218 67.7959 49.4218 56.3245 49.4218Z" fill="#E9AF43"/>
<path d="M29.7632 147.276C29.3629 145.842 28.9023 144.487 28.689 143.095C28.3785 141.068 28.2399 139.014 28.0408 136.97C27.9616 136.158 28.3727 135.862 29.165 135.867C32.4843 135.888 35.8039 135.865 39.1233 135.878C55.9059 135.94 72.6884 136.009 89.4709 136.075C89.7995 136.076 90.1281 136.075 90.5215 136.075C90.5215 143.438 90.5215 150.754 90.5215 158.187C90.1746 158.187 89.8222 158.187 89.4699 158.187C75.0634 158.187 60.6568 158.196 46.2504 158.177C43.9662 158.174 41.6053 157.993 39.5579 157.081C37.4215 156.129 35.2183 155.175 33.5253 153.304C31.9001 151.509 30.833 149.462 29.7632 147.276Z" fill="#E9AF43"/>
<path d="M61.5038 25.7167C55.6285 25.7167 49.8527 25.7161 44.077 25.718C43.746 25.7181 43.4098 25.7048 43.085 25.7553C42.2846 25.8797 41.7277 25.5056 41.801 24.7042C41.9492 23.0852 42.1482 21.4666 42.4229 19.8644C42.9018 17.0717 44.0963 14.5041 45.4622 12.0871C47.1765 9.05351 49.8746 6.96082 52.9215 5.24217C54.275 4.47873 55.6692 3.8121 57.103 3.38379C59.6598 2.62 62.3144 2.18279 64.9287 1.61218C66.4369 1.28299 67.9358 0.890138 69.4589 0.656574C70.6549 0.473162 71.881 0.476085 73.0949 0.420682C76.1862 0.279589 79.2771 0.107481 82.3701 0.0328317C85.0603 -0.0320942 87.7533 0.0193139 90.5162 0.0193139C90.5162 8.56659 90.5162 17.0767 90.5162 25.7167C80.8927 25.7167 71.248 25.7167 61.5038 25.7167Z" fill="#E9AF43"/>
<path d="M73.5233 184.618C71.8553 184.409 70.2586 184.286 68.6749 184.069C67.625 183.925 66.5936 183.646 65.5541 183.426C62.5825 182.799 59.7053 181.872 56.9106 180.687C54.8744 179.824 52.9789 178.686 51.3719 177.192C49.1967 175.169 47.4546 172.777 46.3309 170C45.5059 167.962 44.7712 165.893 44.7511 163.637C44.7445 162.905 44.5095 162.176 44.3915 161.443C44.2536 160.587 44.8947 160.223 45.4964 160.046C46.0413 159.885 46.6781 159.98 47.2667 160.039C47.9693 160.109 48.6636 160.362 49.3618 160.363C62.6688 160.383 75.9758 160.378 89.2828 160.378C89.6767 160.378 90.0706 160.378 90.5254 160.378C90.5254 168.677 90.5254 176.92 90.5254 185.278C89.1437 185.278 87.7621 185.278 86.3806 185.278C84.2849 185.278 82.1889 185.299 80.0937 185.269C79.1451 185.255 78.1837 185.004 77.2537 185.103C75.9784 185.238 74.8342 184.643 73.5233 184.618Z" fill="#E9AF43"/>
</g>
<defs>
<filter id="filter0_i_1098_8764" x="0" y="0" width="90.5343" height="189.285" filterUnits="userSpaceOnUse" color-interpolation-filters="sRGB">
<feFlood flood-opacity="0" result="BackgroundImageFix"/>
<feBlend mode="normal" in="SourceGraphic" in2="BackgroundImageFix" result="shape"/>
<feColorMatrix in="SourceAlpha" type="matrix" values="0 0 0 0 0 0 0 0 0 0 0 0 0 0 0 0 0 0 127 0" result="hardAlpha"/>
<feOffset dy="4"/>
<feGaussianBlur stdDeviation="3"/>
<feComposite in2="hardAlpha" operator="arithmetic" k2="-1" k3="1"/>
<feColorMatrix type="matrix" values="0 0 0 0 1 0 0 0 0 1 0 0 0 0 1 0 0 0 0.8 0"/>
<feBlend mode="normal" in2="shape" result="effect1_innerShadow_1098_8764"/>
</filter>
</defs>
</svg>
