<svg width="2292" height="1334" viewBox="0 0 2292 1334" fill="none" xmlns="http://www.w3.org/2000/svg">
<g filter="url(#filter0_di_223_850)">
<path d="M759.557 1068.37C761.075 1067.52 762.925 1067.52 764.443 1068.37L874.624 1130.07C876.203 1130.95 877.181 1132.62 877.181 1134.43V1257.57C877.181 1259.38 876.203 1261.05 874.624 1261.93L764.443 1323.63C762.925 1324.48 761.075 1324.48 759.557 1323.63L649.376 1261.93C647.797 1261.05 646.819 1259.38 646.819 1257.57V1134.43C646.819 1132.62 647.797 1130.95 649.376 1130.07L759.557 1068.37Z" fill="#164092"/>
</g>
<g filter="url(#filter1_ii_223_850)">
<path d="M989.557 1067.37C991.075 1066.52 992.925 1066.52 994.443 1067.37L1104.62 1129.07C1106.2 1129.95 1107.18 1131.62 1107.18 1133.43V1256.57C1107.18 1258.38 1106.2 1260.05 1104.62 1260.93L994.443 1322.63C992.925 1323.48 991.075 1323.48 989.557 1322.63L879.376 1260.93C877.797 1260.05 876.819 1258.38 876.819 1256.57V1133.43C876.819 1131.62 877.797 1129.95 879.376 1129.07L989.557 1067.37Z" fill="#E9AF43"/>
</g>
<g filter="url(#filter2_di_223_850)">
<path d="M1219.56 1067.37C1221.07 1066.52 1222.93 1066.52 1224.44 1067.37L1334.62 1129.07C1336.2 1129.95 1337.18 1131.62 1337.18 1133.43V1256.57C1337.18 1258.38 1336.2 1260.05 1334.62 1260.93L1224.44 1322.63C1222.93 1323.48 1221.07 1323.48 1219.56 1322.63L1109.38 1260.93C1107.8 1260.05 1106.82 1258.38 1106.82 1256.57V1133.43C1106.82 1131.62 1107.8 1129.95 1109.38 1129.07L1219.56 1067.37Z" fill="#164092"/>
</g>
<g filter="url(#filter3_di_223_850)">
<path d="M1678.56 1067.37C1680.07 1066.52 1681.93 1066.52 1683.44 1067.37L1793.62 1129.07C1795.2 1129.95 1796.18 1131.62 1796.18 1133.43V1256.57C1796.18 1258.38 1795.2 1260.05 1793.62 1260.93L1683.44 1322.63C1681.93 1323.48 1680.07 1323.48 1678.56 1322.63L1568.38 1260.93C1566.8 1260.05 1565.82 1258.38 1565.82 1256.57V1133.43C1565.82 1131.62 1566.8 1129.95 1568.38 1129.07L1678.56 1067.37Z" fill="#164092"/>
</g>
<g filter="url(#filter4_ii_223_850)">
<path d="M1908.56 1067.37C1910.07 1066.52 1911.93 1066.52 1913.44 1067.37L2023.62 1129.07C2025.2 1129.95 2026.18 1131.62 2026.18 1133.43V1256.57C2026.18 1258.38 2025.2 1260.05 2023.62 1260.93L1913.44 1322.63C1911.93 1323.48 1910.07 1323.48 1908.56 1322.63L1798.38 1260.93C1796.8 1260.05 1795.82 1258.38 1795.82 1256.57V1133.43C1795.82 1131.62 1796.8 1129.95 1798.38 1129.07L1908.56 1067.37Z" fill="#E9AF43"/>
</g>
<g filter="url(#filter5_di_223_850)">
<path d="M2138.56 1066.37C2140.07 1065.52 2141.93 1065.52 2143.44 1066.37L2253.62 1128.07C2255.2 1128.95 2256.18 1130.62 2256.18 1132.43V1255.57C2256.18 1257.38 2255.2 1259.05 2253.62 1259.93L2143.44 1321.63C2141.93 1322.48 2140.07 1322.48 2138.56 1321.63L2028.38 1259.93C2026.8 1259.05 2025.82 1257.38 2025.82 1255.57V1132.43C2025.82 1130.62 2026.8 1128.95 2028.38 1128.07L2138.56 1066.37Z" fill="#164092"/>
</g>
<g filter="url(#filter6_ii_223_850)">
<path d="M308.933 1073.24C310.399 1072.47 312.155 1072.47 313.621 1073.24L422.31 1130.93C423.944 1131.79 424.966 1133.49 424.966 1135.34V1250C424.966 1251.85 423.944 1253.55 422.31 1254.42L313.621 1312.1C312.155 1312.88 310.399 1312.88 308.933 1312.1L200.244 1254.42C198.61 1253.55 197.588 1251.85 197.588 1250V1135.34C197.588 1133.49 198.61 1131.79 200.244 1130.93L308.933 1073.24Z" fill="#E9AF43"/>
</g>
<g filter="url(#filter7_ii_223_850)">
<path d="M1829.56 1.36803C1831.07 0.518104 1832.93 0.518105 1834.44 1.36803L1944.62 63.0681C1946.2 63.9524 1947.18 65.6209 1947.18 67.4307V190.569C1947.18 192.379 1946.2 194.048 1944.62 194.932L1834.44 256.632C1832.93 257.482 1831.07 257.482 1829.56 256.632L1719.38 194.932C1717.8 194.048 1716.82 192.379 1716.82 190.569V67.4307C1716.82 65.6209 1717.8 63.9524 1719.38 63.0681L1829.56 1.36803Z" fill="#E9AF43"/>
</g>
<g filter="url(#filter8_ii_223_850)">
<path d="M1944.56 194.368C1946.07 193.518 1947.93 193.518 1949.44 194.368L2059.62 256.068C2061.2 256.952 2062.18 258.621 2062.18 260.431V383.569C2062.18 385.379 2061.2 387.048 2059.62 387.932L1949.44 449.632C1947.93 450.482 1946.07 450.482 1944.56 449.632L1834.38 387.932C1832.8 387.048 1831.82 385.379 1831.82 383.569V260.431C1831.82 258.621 1832.8 256.952 1834.38 256.068L1944.56 194.368Z" fill="#E9AF43"/>
</g>
<g filter="url(#filter9_di_223_850)">
<path d="M130.557 551.368C132.075 550.518 133.925 550.518 135.443 551.368L245.624 613.068C247.203 613.952 248.181 615.621 248.181 617.431V740.569C248.181 742.379 247.203 744.048 245.624 744.932L135.443 806.632C133.925 807.482 132.075 807.482 130.557 806.632L20.3756 744.932C18.7966 744.048 17.8186 742.379 17.8186 740.569V617.431C17.8186 615.621 18.7966 613.952 20.3756 613.068L130.557 551.368Z" fill="#164092"/>
</g>
<defs>
<filter id="filter0_di_223_850" x="625.3" y="1037.3" width="305.4" height="297.4" filterUnits="userSpaceOnUse" color-interpolation-filters="sRGB">
<feFlood flood-opacity="0" result="BackgroundImageFix"/>
<feColorMatrix in="SourceAlpha" type="matrix" values="0 0 0 0 0 0 0 0 0 0 0 0 0 0 0 0 0 0 127 0" result="hardAlpha"/>
<feOffset dx="16" dy="-10"/>
<feGaussianBlur stdDeviation="9.85"/>
<feComposite in2="hardAlpha" operator="out"/>
<feColorMatrix type="matrix" values="0 0 0 0 0 0 0 0 0 0 0 0 0 0 0 0 0 0 0.4 0"/>
<feBlend mode="normal" in2="BackgroundImageFix" result="effect1_dropShadow_223_850"/>
<feBlend mode="normal" in="SourceGraphic" in2="effect1_dropShadow_223_850" result="shape"/>
<feColorMatrix in="SourceAlpha" type="matrix" values="0 0 0 0 0 0 0 0 0 0 0 0 0 0 0 0 0 0 127 0" result="hardAlpha"/>
<feOffset dx="2" dy="-3"/>
<feGaussianBlur stdDeviation="7.7"/>
<feComposite in2="hardAlpha" operator="arithmetic" k2="-1" k3="1"/>
<feColorMatrix type="matrix" values="0 0 0 0 0 0 0 0 0 0 0 0 0 0 0 0 0 0 0.35 0"/>
<feBlend mode="hard-light" in2="shape" result="effect2_innerShadow_223_850"/>
</filter>
<filter id="filter1_ii_223_850" x="859" y="1054" width="273" height="276" filterUnits="userSpaceOnUse" color-interpolation-filters="sRGB">
<feFlood flood-opacity="0" result="BackgroundImageFix"/>
<feBlend mode="normal" in="SourceGraphic" in2="BackgroundImageFix" result="shape"/>
<feColorMatrix in="SourceAlpha" type="matrix" values="0 0 0 0 0 0 0 0 0 0 0 0 0 0 0 0 0 0 127 0" result="hardAlpha"/>
<feOffset dx="7" dy="-12"/>
<feGaussianBlur stdDeviation="6.75"/>
<feComposite in2="hardAlpha" operator="arithmetic" k2="-1" k3="1"/>
<feColorMatrix type="matrix" values="0 0 0 0 0 0 0 0 0 0 0 0 0 0 0 0 0 0 0.35 0"/>
<feBlend mode="normal" in2="shape" result="effect1_innerShadow_223_850"/>
<feColorMatrix in="SourceAlpha" type="matrix" values="0 0 0 0 0 0 0 0 0 0 0 0 0 0 0 0 0 0 127 0" result="hardAlpha"/>
<feOffset dx="1" dy="6"/>
<feGaussianBlur stdDeviation="5.6"/>
<feComposite in2="hardAlpha" operator="arithmetic" k2="-1" k3="1"/>
<feColorMatrix type="matrix" values="0 0 0 0 0 0 0 0 0 0 0 0 0 0 0 0 0 0 0.25 0"/>
<feBlend mode="normal" in2="effect1_innerShadow_223_850" result="effect2_innerShadow_223_850"/>
</filter>
<filter id="filter2_di_223_850" x="1085.3" y="1036.3" width="305.4" height="297.4" filterUnits="userSpaceOnUse" color-interpolation-filters="sRGB">
<feFlood flood-opacity="0" result="BackgroundImageFix"/>
<feColorMatrix in="SourceAlpha" type="matrix" values="0 0 0 0 0 0 0 0 0 0 0 0 0 0 0 0 0 0 127 0" result="hardAlpha"/>
<feOffset dx="16" dy="-10"/>
<feGaussianBlur stdDeviation="9.85"/>
<feComposite in2="hardAlpha" operator="out"/>
<feColorMatrix type="matrix" values="0 0 0 0 0 0 0 0 0 0 0 0 0 0 0 0 0 0 0.4 0"/>
<feBlend mode="normal" in2="BackgroundImageFix" result="effect1_dropShadow_223_850"/>
<feBlend mode="normal" in="SourceGraphic" in2="effect1_dropShadow_223_850" result="shape"/>
<feColorMatrix in="SourceAlpha" type="matrix" values="0 0 0 0 0 0 0 0 0 0 0 0 0 0 0 0 0 0 127 0" result="hardAlpha"/>
<feOffset dx="2" dy="-3"/>
<feGaussianBlur stdDeviation="7.7"/>
<feComposite in2="hardAlpha" operator="arithmetic" k2="-1" k3="1"/>
<feColorMatrix type="matrix" values="0 0 0 0 0 0 0 0 0 0 0 0 0 0 0 0 0 0 0.35 0"/>
<feBlend mode="hard-light" in2="shape" result="effect2_innerShadow_223_850"/>
</filter>
<filter id="filter3_di_223_850" x="1544.3" y="1036.3" width="305.4" height="297.4" filterUnits="userSpaceOnUse" color-interpolation-filters="sRGB">
<feFlood flood-opacity="0" result="BackgroundImageFix"/>
<feColorMatrix in="SourceAlpha" type="matrix" values="0 0 0 0 0 0 0 0 0 0 0 0 0 0 0 0 0 0 127 0" result="hardAlpha"/>
<feOffset dx="16" dy="-10"/>
<feGaussianBlur stdDeviation="9.85"/>
<feComposite in2="hardAlpha" operator="out"/>
<feColorMatrix type="matrix" values="0 0 0 0 0 0 0 0 0 0 0 0 0 0 0 0 0 0 0.4 0"/>
<feBlend mode="normal" in2="BackgroundImageFix" result="effect1_dropShadow_223_850"/>
<feBlend mode="normal" in="SourceGraphic" in2="effect1_dropShadow_223_850" result="shape"/>
<feColorMatrix in="SourceAlpha" type="matrix" values="0 0 0 0 0 0 0 0 0 0 0 0 0 0 0 0 0 0 127 0" result="hardAlpha"/>
<feOffset dx="2" dy="-3"/>
<feGaussianBlur stdDeviation="7.7"/>
<feComposite in2="hardAlpha" operator="arithmetic" k2="-1" k3="1"/>
<feColorMatrix type="matrix" values="0 0 0 0 0 0 0 0 0 0 0 0 0 0 0 0 0 0 0.35 0"/>
<feBlend mode="hard-light" in2="shape" result="effect2_innerShadow_223_850"/>
</filter>
<filter id="filter4_ii_223_850" x="1778" y="1054" width="273" height="276" filterUnits="userSpaceOnUse" color-interpolation-filters="sRGB">
<feFlood flood-opacity="0" result="BackgroundImageFix"/>
<feBlend mode="normal" in="SourceGraphic" in2="BackgroundImageFix" result="shape"/>
<feColorMatrix in="SourceAlpha" type="matrix" values="0 0 0 0 0 0 0 0 0 0 0 0 0 0 0 0 0 0 127 0" result="hardAlpha"/>
<feOffset dx="7" dy="-12"/>
<feGaussianBlur stdDeviation="6.75"/>
<feComposite in2="hardAlpha" operator="arithmetic" k2="-1" k3="1"/>
<feColorMatrix type="matrix" values="0 0 0 0 0 0 0 0 0 0 0 0 0 0 0 0 0 0 0.35 0"/>
<feBlend mode="normal" in2="shape" result="effect1_innerShadow_223_850"/>
<feColorMatrix in="SourceAlpha" type="matrix" values="0 0 0 0 0 0 0 0 0 0 0 0 0 0 0 0 0 0 127 0" result="hardAlpha"/>
<feOffset dx="1" dy="6"/>
<feGaussianBlur stdDeviation="5.6"/>
<feComposite in2="hardAlpha" operator="arithmetic" k2="-1" k3="1"/>
<feColorMatrix type="matrix" values="0 0 0 0 0 0 0 0 0 0 0 0 0 0 0 0 0 0 0.25 0"/>
<feBlend mode="normal" in2="effect1_innerShadow_223_850" result="effect2_innerShadow_223_850"/>
</filter>
<filter id="filter5_di_223_850" x="2004.3" y="1035.3" width="305.4" height="297.4" filterUnits="userSpaceOnUse" color-interpolation-filters="sRGB">
<feFlood flood-opacity="0" result="BackgroundImageFix"/>
<feColorMatrix in="SourceAlpha" type="matrix" values="0 0 0 0 0 0 0 0 0 0 0 0 0 0 0 0 0 0 127 0" result="hardAlpha"/>
<feOffset dx="16" dy="-10"/>
<feGaussianBlur stdDeviation="9.85"/>
<feComposite in2="hardAlpha" operator="out"/>
<feColorMatrix type="matrix" values="0 0 0 0 0 0 0 0 0 0 0 0 0 0 0 0 0 0 0.4 0"/>
<feBlend mode="normal" in2="BackgroundImageFix" result="effect1_dropShadow_223_850"/>
<feBlend mode="normal" in="SourceGraphic" in2="effect1_dropShadow_223_850" result="shape"/>
<feColorMatrix in="SourceAlpha" type="matrix" values="0 0 0 0 0 0 0 0 0 0 0 0 0 0 0 0 0 0 127 0" result="hardAlpha"/>
<feOffset dx="2" dy="-3"/>
<feGaussianBlur stdDeviation="7.7"/>
<feComposite in2="hardAlpha" operator="arithmetic" k2="-1" k3="1"/>
<feColorMatrix type="matrix" values="0 0 0 0 0 0 0 0 0 0 0 0 0 0 0 0 0 0 0.35 0"/>
<feBlend mode="hard-light" in2="shape" result="effect2_innerShadow_223_850"/>
</filter>
<filter id="filter6_ii_223_850" x="180" y="1060" width="269.554" height="259.347" filterUnits="userSpaceOnUse" color-interpolation-filters="sRGB">
<feFlood flood-opacity="0" result="BackgroundImageFix"/>
<feBlend mode="normal" in="SourceGraphic" in2="BackgroundImageFix" result="shape"/>
<feColorMatrix in="SourceAlpha" type="matrix" values="0 0 0 0 0 0 0 0 0 0 0 0 0 0 0 0 0 0 127 0" result="hardAlpha"/>
<feOffset dx="7" dy="-12"/>
<feGaussianBlur stdDeviation="6.75"/>
<feComposite in2="hardAlpha" operator="arithmetic" k2="-1" k3="1"/>
<feColorMatrix type="matrix" values="0 0 0 0 0 0 0 0 0 0 0 0 0 0 0 0 0 0 0.35 0"/>
<feBlend mode="normal" in2="shape" result="effect1_innerShadow_223_850"/>
<feColorMatrix in="SourceAlpha" type="matrix" values="0 0 0 0 0 0 0 0 0 0 0 0 0 0 0 0 0 0 127 0" result="hardAlpha"/>
<feOffset dx="1" dy="6"/>
<feGaussianBlur stdDeviation="5.6"/>
<feComposite in2="hardAlpha" operator="arithmetic" k2="-1" k3="1"/>
<feColorMatrix type="matrix" values="0 0 0 0 0 0 0 0 0 0 0 0 0 0 0 0 0 0 0.25 0"/>
<feBlend mode="normal" in2="effect1_innerShadow_223_850" result="effect2_innerShadow_223_850"/>
</filter>
<filter id="filter7_ii_223_850" x="1699" y="-12" width="273" height="276" filterUnits="userSpaceOnUse" color-interpolation-filters="sRGB">
<feFlood flood-opacity="0" result="BackgroundImageFix"/>
<feBlend mode="normal" in="SourceGraphic" in2="BackgroundImageFix" result="shape"/>
<feColorMatrix in="SourceAlpha" type="matrix" values="0 0 0 0 0 0 0 0 0 0 0 0 0 0 0 0 0 0 127 0" result="hardAlpha"/>
<feOffset dx="7" dy="-12"/>
<feGaussianBlur stdDeviation="6.75"/>
<feComposite in2="hardAlpha" operator="arithmetic" k2="-1" k3="1"/>
<feColorMatrix type="matrix" values="0 0 0 0 0 0 0 0 0 0 0 0 0 0 0 0 0 0 0.35 0"/>
<feBlend mode="normal" in2="shape" result="effect1_innerShadow_223_850"/>
<feColorMatrix in="SourceAlpha" type="matrix" values="0 0 0 0 0 0 0 0 0 0 0 0 0 0 0 0 0 0 127 0" result="hardAlpha"/>
<feOffset dx="1" dy="6"/>
<feGaussianBlur stdDeviation="5.6"/>
<feComposite in2="hardAlpha" operator="arithmetic" k2="-1" k3="1"/>
<feColorMatrix type="matrix" values="0 0 0 0 0 0 0 0 0 0 0 0 0 0 0 0 0 0 0.25 0"/>
<feBlend mode="normal" in2="effect1_innerShadow_223_850" result="effect2_innerShadow_223_850"/>
</filter>
<filter id="filter8_ii_223_850" x="1814" y="181" width="273" height="276" filterUnits="userSpaceOnUse" color-interpolation-filters="sRGB">
<feFlood flood-opacity="0" result="BackgroundImageFix"/>
<feBlend mode="normal" in="SourceGraphic" in2="BackgroundImageFix" result="shape"/>
<feColorMatrix in="SourceAlpha" type="matrix" values="0 0 0 0 0 0 0 0 0 0 0 0 0 0 0 0 0 0 127 0" result="hardAlpha"/>
<feOffset dx="7" dy="-12"/>
<feGaussianBlur stdDeviation="6.75"/>
<feComposite in2="hardAlpha" operator="arithmetic" k2="-1" k3="1"/>
<feColorMatrix type="matrix" values="0 0 0 0 0 0 0 0 0 0 0 0 0 0 0 0 0 0 0.35 0"/>
<feBlend mode="normal" in2="shape" result="effect1_innerShadow_223_850"/>
<feColorMatrix in="SourceAlpha" type="matrix" values="0 0 0 0 0 0 0 0 0 0 0 0 0 0 0 0 0 0 127 0" result="hardAlpha"/>
<feOffset dx="1" dy="6"/>
<feGaussianBlur stdDeviation="5.6"/>
<feComposite in2="hardAlpha" operator="arithmetic" k2="-1" k3="1"/>
<feColorMatrix type="matrix" values="0 0 0 0 0 0 0 0 0 0 0 0 0 0 0 0 0 0 0.25 0"/>
<feBlend mode="normal" in2="effect1_innerShadow_223_850" result="effect2_innerShadow_223_850"/>
</filter>
<filter id="filter9_di_223_850" x="-3.7" y="520.3" width="305.4" height="297.4" filterUnits="userSpaceOnUse" color-interpolation-filters="sRGB">
<feFlood flood-opacity="0" result="BackgroundImageFix"/>
<feColorMatrix in="SourceAlpha" type="matrix" values="0 0 0 0 0 0 0 0 0 0 0 0 0 0 0 0 0 0 127 0" result="hardAlpha"/>
<feOffset dx="16" dy="-10"/>
<feGaussianBlur stdDeviation="9.85"/>
<feComposite in2="hardAlpha" operator="out"/>
<feColorMatrix type="matrix" values="0 0 0 0 0 0 0 0 0 0 0 0 0 0 0 0 0 0 0.4 0"/>
<feBlend mode="normal" in2="BackgroundImageFix" result="effect1_dropShadow_223_850"/>
<feBlend mode="normal" in="SourceGraphic" in2="effect1_dropShadow_223_850" result="shape"/>
<feColorMatrix in="SourceAlpha" type="matrix" values="0 0 0 0 0 0 0 0 0 0 0 0 0 0 0 0 0 0 127 0" result="hardAlpha"/>
<feOffset dx="2" dy="-3"/>
<feGaussianBlur stdDeviation="7.7"/>
<feComposite in2="hardAlpha" operator="arithmetic" k2="-1" k3="1"/>
<feColorMatrix type="matrix" values="0 0 0 0 0 0 0 0 0 0 0 0 0 0 0 0 0 0 0.35 0"/>
<feBlend mode="hard-light" in2="shape" result="effect2_innerShadow_223_850"/>
</filter>
</defs>
</svg>
