<svg width="24" height="40" viewBox="0 0 24 40" fill="none" xmlns="http://www.w3.org/2000/svg">
<path d="M7.56019 27.5302C6.98971 26.5411 6.5334 25.556 6.02915 24.5961C4.89134 22.4301 3.6059 20.3846 2.05496 18.4563C0.888532 17.006 0.234766 15.1513 0.0619712 13.1783C-0.0953617 11.3818 0.028651 9.64132 0.645392 7.96896C2.2464 3.62765 5.45524 0.81485 9.89958 0.163835C15.3987 -0.641695 20.4331 1.49546 22.8641 7.19043C24.7422 11.5903 23.9191 15.7992 21.0034 19.6268C19.9483 21.0119 19.065 22.5343 18.1735 24.0356C17.5342 25.1122 17.0114 26.258 16.4341 27.4439C13.5052 27.5251 10.5789 27.5353 7.56019 27.5302Z" fill="#FFFFFE"/>
<path d="M15.1697 29.9567C14.4583 31.4699 14.3637 33.0952 14.3326 34.8295C14.1924 34.8992 14.1236 34.8842 13.9819 34.8297C12.5536 34.8131 11.1982 34.8361 9.78582 34.8666C9.6527 34.8663 9.57657 34.8583 9.50044 34.8504C9.48616 33.2253 9.54338 31.5874 8.64661 30.045C10.7817 29.9621 12.9284 29.9514 15.1697 29.9567Z" fill="#FFFEFE"/>
<path d="M14.2511 36.671C14.9588 37.2837 14.5013 37.6387 13.9112 37.6709C12.4718 37.7495 11.0228 37.7462 9.58271 37.674C8.93782 37.6417 8.8441 37.2146 9.47516 36.7169C11.1747 36.6868 12.7129 36.6789 14.2511 36.671Z" fill="#185490"/>
<path d="M9.43555 34.8902C9.57648 34.8584 9.65262 34.8663 9.8779 34.8897C11.3696 34.8932 12.7122 34.8812 14.0548 34.8693C14.1235 34.8843 14.1923 34.8992 14.3133 34.9213C14.8413 35.6356 14.2714 35.8615 13.8022 35.8835C12.4149 35.9485 11.0195 35.9622 9.63368 35.8832C8.99018 35.8466 8.92761 35.3977 9.43555 34.8902Z" fill="#185590"/>
<path d="M12.5967 38.5027C13.1278 38.5863 13.567 38.6698 14.0063 38.7534C14.0003 38.8972 13.9943 39.041 13.9884 39.1848C13.6055 39.2903 13.2267 39.4648 12.8391 39.487C12.0189 39.5338 11.1905 39.5448 10.373 39.4777C10.0778 39.4535 9.8043 39.1638 9.52087 38.9953C9.79139 38.8312 10.051 38.5523 10.3346 38.5255C11.0523 38.4576 11.7808 38.5028 12.5967 38.5027Z" fill="#195590"/>
<path d="M14.1795 36.6288C12.7129 36.6768 11.1747 36.6844 9.54309 36.6783C11.0025 36.6392 12.5552 36.6137 14.1795 36.6288Z" fill="#C29766"/>
<path d="M13.9819 34.8295C12.7123 34.8791 11.3697 34.8906 9.93494 34.88C11.1982 34.8357 12.5535 34.8135 13.9819 34.8295Z" fill="#D3D1D5"/>
</svg>
