<svg width="32" height="30" viewBox="0 0 32 30" fill="none" xmlns="http://www.w3.org/2000/svg">
<circle cx="25.2566" cy="15" r="5" fill="#050F23"/>
<circle cx="21.2566" cy="25" r="5" fill="#FFFAFF"/>
<ellipse cx="13.2566" cy="15.5" rx="8" ry="6.5" fill="#E9AF43"/>
<path d="M20.3488 14.9655C20.7064 14.1913 21.8068 14.1913 22.1644 14.9655L25.7972 22.8307C26.1033 23.4933 25.6193 24.25 24.8893 24.25H17.6238C16.8939 24.25 16.4099 23.4933 16.716 22.8307L20.3488 14.9655Z" fill="#FFFAFF"/>
<circle cx="21.2566" cy="5" r="5" transform="rotate(-180 21.2566 5)" fill="#FFFAFF"/>
<path d="M22.1644 15.0345C21.8068 15.8087 20.7064 15.8087 20.3488 15.0345L16.716 7.16932C16.4099 6.50667 16.8939 5.75 17.6238 5.75L24.8893 5.75C25.6193 5.75 26.1033 6.50667 25.7972 7.16931L22.1644 15.0345Z" fill="#FFFAFF"/>
<path d="M1.77091 16.4008C1.04006 16.032 1.03771 14.9893 1.76691 14.6173L7.16845 11.8613C7.83292 11.5222 8.62125 12.0038 8.62293 12.7498L8.63526 18.2375C8.63694 18.9834 7.85078 19.4685 7.18479 19.1325L1.77091 16.4008Z" fill="#E9AF43"/>
<rect x="16.2566" y="11" width="1" height="9" rx="0.5" fill="#050F23"/>
<rect x="31.3234" y="10" width="1" height="5" rx="0.5" transform="rotate(54.426 31.3234 10)" fill="#050F23"/>
<rect x="31.8269" y="19.0529" width="1" height="5" rx="0.5" transform="rotate(127.631 31.8269 19.0529)" fill="#050F23"/>
<rect x="12.2566" y="11" width="1" height="9" rx="0.5" fill="#050F23"/>
<rect x="8.25659" y="11" width="1" height="9" rx="0.5" fill="#050F23"/>
</svg>
