<svg width="94" height="187" viewBox="0 0 94 187" fill="none" xmlns="http://www.w3.org/2000/svg">
<g filter="url(#filter0_i_1098_2462)">
<path d="M0.000367852 118.153C0.000367852 106.576 0.000367852 95.0982 0.000367852 83.616C2.4897 83.616 4.86213 83.6128 7.23453 83.6193C7.59652 83.6203 7.95837 83.6872 8.3203 83.6875C14.8939 83.6918 21.4675 83.7009 28.0411 83.6771C28.8174 83.6743 29.2873 83.9261 29.7476 84.5734C31.6293 87.22 33.6027 89.8012 35.511 92.4292C36.9361 94.3918 38.3517 96.3634 39.7002 98.3788C40.9177 100.198 42.4692 101.118 44.7401 101.052C48.6545 100.94 52.5746 101.036 56.492 101.008C57.2043 101.003 57.5639 101.16 57.8725 101.895C58.1521 102.561 58.7696 103.194 59.3977 103.584C60.9278 104.535 62.6588 105.188 64.11 106.236C66.2188 107.759 68.1004 107.451 70.0935 106.124C71.3778 105.269 72.7162 104.488 74.0707 103.749C75.0635 103.206 75.4702 102.368 75.4873 101.325C75.5219 99.2009 75.5503 97.0739 75.4765 94.9516C75.4369 93.8111 75.0591 92.8129 73.8732 92.2201C72.026 91.2968 70.2284 90.2694 68.4434 89.2284C67.3136 88.5695 66.354 88.6668 65.2532 89.3793C63.1576 90.7359 60.9718 91.9527 58.828 93.2353C58.6049 93.3688 58.3031 93.5137 58.2254 93.7229C57.8508 94.7309 57.0564 94.6636 56.2101 94.6573C52.8238 94.6319 49.4369 94.6171 46.0512 94.6661C45.11 94.6797 44.5501 94.4446 44.001 93.5899C42.5832 91.3832 41.0149 89.2707 39.4583 87.1562C37.3393 84.2779 35.1923 81.4198 33.0211 78.5808C32.2866 77.6204 31.1794 77.326 30.0254 77.3238C22.6218 77.3093 15.2182 77.3165 7.81458 77.3165C5.27097 77.3165 2.72735 77.3165 0.0913613 77.3165C0.0913613 64.8976 0.0913613 52.3442 0.0913613 39.7943C2.7618 39.7943 5.40039 39.7915 8.03894 39.7975C8.40112 39.7983 8.76314 39.8623 9.12528 39.8628C12.7109 39.868 16.2965 39.876 19.882 39.8569C20.5363 39.8534 20.8965 39.9697 21.1998 40.6869C21.4925 41.3789 22.134 42.0327 22.7863 42.4412C24.3132 43.3971 26.047 44.0456 27.4976 45.0944C29.5737 46.5956 31.4276 46.2913 33.3921 44.9977C34.6808 44.1491 36.0132 43.3589 37.3701 42.6239C38.3589 42.0883 38.8121 41.2727 38.8317 40.2259C38.8722 38.0686 38.9002 35.9081 38.8212 33.753C38.7793 32.6121 38.3675 31.634 37.1821 31.0439C35.2742 30.0942 33.4361 29.0032 31.5781 27.955C30.5769 27.3903 29.6888 27.5346 28.7293 28.1381C26.5873 29.4852 24.392 30.7475 22.2222 32.0507C21.9988 32.1849 21.694 32.3185 21.6094 32.5266C21.1791 33.5842 20.3234 33.5064 19.4137 33.5031C13.3382 33.4807 7.26253 33.4914 1.18693 33.4914C0.831942 33.4914 0.476941 33.4914 0.00038001 33.4914C0.00038001 33.0145 0.00038001 32.6594 0.00038001 32.3044C0.00038001 22.5104 -0.000446703 12.7164 0.00103656 2.92235C0.0013527 0.804609 0.795345 0.0259623 2.95053 0.0257866C14.6369 0.0248346 26.3234 0.0470621 38.0097 5.67243e-05C39.6175 -0.00641041 40.6455 0.53951 41.4307 1.94602C44.3613 7.1953 47.3571 12.4083 50.3465 17.6246C53.0575 22.355 55.8035 27.0653 58.5123 31.797C60.4049 35.103 62.2681 38.4259 64.1155 41.7573C64.2348 41.9724 64.2107 42.3936 64.0748 42.6033C63.1277 44.0643 62.2689 45.6139 61.1273 46.9112C58.4222 49.9849 56.2725 53.4486 53.8992 56.7555C52.2934 58.993 50.6698 61.2178 49.0058 63.5151C48.8786 63.44 48.6915 63.3382 48.5133 63.2228C47.1912 62.3662 45.9479 62.2021 44.5175 63.1745C42.5361 64.5216 40.4314 65.6901 38.3562 66.8952C37.4483 67.4224 37.0907 68.2313 37.0661 69.189C37.0209 70.9474 37.0076 72.7094 37.0685 74.4669C37.1121 75.7229 37.6747 76.7138 38.8541 77.3251C40.4561 78.1554 42.137 78.8921 43.5886 79.9398C45.6963 81.4612 47.5785 81.1585 49.5725 79.8311C50.8566 78.9761 52.1948 78.1951 53.5497 77.4559C54.5426 76.9142 54.9518 76.0771 54.9691 75.0341C55.0044 72.9098 54.98 70.7846 54.9793 68.6598C54.9792 68.5271 55.0214 68.3632 54.9605 68.2664C53.9351 66.6398 55.2767 65.7061 56.0341 64.6174C56.8953 63.3794 57.8066 62.1762 58.6759 60.9437C59.9795 59.0954 61.2776 57.2431 62.5556 55.3772C64.0962 53.1281 65.6123 50.8623 67.1426 48.6062C67.2517 48.4453 67.3905 48.3045 67.6041 48.0478C68.522 49.5806 69.4226 51.0392 70.2791 52.5234C73.0534 57.331 75.8208 62.1427 78.5726 66.9633C80.38 70.1294 82.1406 73.3222 83.9496 76.4874C86.7532 81.393 89.5625 86.2954 92.4092 91.176C93.1504 92.4468 93.3402 93.6066 92.5046 94.9242C91.4669 96.5607 90.5454 98.271 89.5791 99.9526C87.7799 103.084 86.0013 106.227 84.1834 109.347C81.9163 113.239 79.5988 117.101 77.3397 120.997C75.6931 123.836 74.1371 126.729 72.4847 129.565C70.1513 133.57 67.739 137.529 65.4105 141.536C62.7206 146.166 60.0937 150.832 57.4223 155.473C56.1433 157.694 54.8101 159.885 53.5274 162.104C51.9011 164.918 50.3189 167.757 48.6852 170.567C46.6198 174.119 44.5093 177.645 42.4441 181.197C41.7194 182.443 41.0767 183.737 40.3862 185.004C39.7758 186.124 38.749 186.659 37.5471 186.662C25.9272 186.689 14.3071 186.685 2.68713 186.67C0.944018 186.668 0.00227682 185.586 0.00176607 183.701C-0.00107895 173.177 0.000367852 162.652 0.000367852 152.128C0.000367852 149.904 0.00038001 147.679 0.00038001 145.455C0.00038001 145.098 0.00038001 144.741 0.00038001 144.248C0.494339 144.248 0.88077 144.248 1.2672 144.248C6.71201 144.248 12.1576 144.195 17.6013 144.273C20.0389 144.308 21.6694 143.313 22.9398 141.268C24.3221 139.043 25.9496 136.972 27.4483 134.818C28.5536 133.23 29.612 131.609 30.7144 130.019C31.3308 129.129 31.9828 128.264 32.6479 127.41C32.7555 127.272 33.0253 127.169 33.2025 127.191C35.0244 127.417 36.8434 127.668 38.6617 127.922C40.6757 128.204 42.6881 128.497 44.8731 128.81C44.0861 130.246 43.3272 131.631 42.5042 133.132C41.2614 132.295 40.2396 132.969 39.183 133.619C37.1958 134.842 35.1951 136.044 33.1765 137.214C32.2681 137.741 31.9114 138.551 31.8868 139.508C31.8417 141.267 31.8284 143.029 31.8892 144.786C31.9327 146.042 32.4963 147.033 33.6754 147.644C35.2773 148.474 36.9584 149.211 38.4099 150.259C40.5178 151.781 42.3999 151.477 44.3937 150.149C45.6779 149.295 47.016 148.514 48.3709 147.774C49.3638 147.233 49.7725 146.395 49.7898 145.352C49.8251 143.228 49.8132 141.103 49.7955 138.978C49.7856 137.779 49.2176 136.868 48.0738 136.138C49.1785 134.097 50.2992 132.06 51.3853 130.005C51.8886 129.053 52.4252 128.099 52.7689 127.086C53.3656 125.327 52.0586 123.503 50.482 123.309C48.2373 123.032 46.0036 122.665 43.7658 122.333C42.2728 122.111 40.7827 121.87 39.288 121.661C37.9228 121.471 36.5571 121.255 35.1841 121.159C34.1199 121.084 33.5017 120.69 33.0803 119.644C32.0021 116.966 30.7804 114.346 29.5979 111.661C30.9575 111.078 31.3097 109.926 31.2835 108.533C31.2497 106.741 31.2806 104.948 31.2736 103.155C31.2681 101.762 30.9127 100.609 29.5107 99.9077C27.6045 98.9543 25.7639 97.8694 23.8981 96.8358C23.1202 96.405 22.3489 96.3544 21.5681 96.8233C19.2577 98.2109 16.9559 99.6134 14.6298 100.974C13.7213 101.506 13.3836 102.322 13.3599 103.279C13.3173 105.004 13.309 106.732 13.3599 108.457C13.3995 109.798 14.0065 110.799 15.26 111.445C16.9795 112.33 18.6361 113.337 20.3365 114.261C21.3394 114.806 22.3272 115.438 23.586 114.99C23.788 114.918 24.2703 115.156 24.3765 115.372C24.9979 116.635 25.5442 117.936 26.1192 119.222C26.7064 120.535 27.2975 121.847 27.8508 123.079C26.8384 124.596 25.8976 126.06 24.901 127.484C23.6228 129.311 22.2918 131.101 20.9984 132.918C20.0478 134.253 19.1584 135.634 18.162 136.933C17.8444 137.348 17.2738 137.828 16.8139 137.833C11.403 137.895 5.99119 137.872 0.579594 137.868C0.448283 137.868 0.317009 137.841 0.000367852 137.805C0.000367852 131.295 0.000367852 124.774 0.000367852 118.153Z" fill="#164090"/>
<path d="M64.1477 95.0462C64.3019 94.9713 64.3839 94.9146 64.4715 94.8681C65.4163 94.3661 66.4556 93.3395 67.2858 93.487C68.5586 93.7132 69.6974 94.7325 70.8665 95.4579C71.0272 95.5576 71.1 95.9012 71.1042 96.1338C71.1268 97.3916 71.1437 98.6511 71.0937 99.9072C71.0821 100.201 70.8756 100.593 70.6346 100.753C69.6507 101.402 68.6335 102.006 67.5942 102.563C67.3265 102.706 66.8695 102.744 66.6094 102.613C65.1501 101.876 63.7098 101.098 62.3005 100.271C62.032 100.113 61.9309 99.6689 61.7559 99.3551C61.7418 99.3297 61.7593 99.2887 61.7528 99.2569C61.3286 97.1948 62.0767 95.7842 64.1477 95.0462Z" fill="#164090"/>
<path d="M24.9089 109.388C24.3102 109.74 23.7986 110.103 23.2444 110.381C23.0209 110.494 22.6506 110.523 22.4382 110.414C20.9558 109.65 19.4851 108.86 18.0427 108.023C17.794 107.879 17.6968 107.472 17.5332 107.185C17.5189 107.16 17.5351 107.119 17.5302 107.087C17.2495 105.212 17.5466 103.641 19.644 102.985C19.8891 102.909 20.1028 102.733 20.3337 102.609C21.2471 102.115 22.2632 101.097 23.0526 101.249C24.3288 101.496 25.4631 102.501 26.6373 103.219C26.784 103.308 26.8766 103.596 26.8798 103.794C26.901 105.118 26.9155 106.443 26.8705 107.766C26.8617 108.027 26.6415 108.354 26.4202 108.519C25.9757 108.849 25.4633 109.088 24.9089 109.388Z" fill="#164090"/>
<path d="M31.0243 32.371C32.0081 32.9715 32.9111 33.5761 33.8721 34.0674C34.3823 34.3282 34.4803 34.6573 34.4699 35.1589C34.4458 36.3174 34.4373 37.4775 34.4733 38.6354C34.4897 39.1649 34.321 39.4465 33.8359 39.7012C32.8504 40.2185 31.9347 40.8679 30.9554 41.3988C30.6875 41.544 30.2305 41.5918 29.9722 41.4619C28.512 40.7271 27.0714 39.9494 25.6609 39.1235C25.39 38.9649 25.2823 38.5267 25.1027 38.2155C25.0883 38.1906 25.1049 38.1496 25.0996 38.1173C24.7881 36.2148 25.2094 34.7561 27.2399 34.0075C28.2402 33.6387 29.1115 32.9299 30.068 32.4257C30.3161 32.295 30.665 32.3555 31.0243 32.371Z" fill="#164090"/>
<path d="M45.4187 143.592C45.5023 144.271 45.3114 144.629 44.7315 144.919C43.7356 145.417 42.8216 146.076 41.8423 146.612C41.6009 146.744 41.1825 146.773 40.9443 146.654C39.51 145.932 38.0841 145.187 36.7046 144.368C36.3893 144.18 36.1498 143.69 36.0765 143.3C35.7193 141.403 36.1641 139.936 38.198 139.185C39.2002 138.815 40.0699 138.098 41.0337 137.604C41.2961 137.47 41.7446 137.46 42.0008 137.595C42.9869 138.115 43.9508 138.687 44.8749 139.31C45.1393 139.489 45.3754 139.899 45.3938 140.217C45.4573 141.308 45.4185 142.405 45.4187 143.592Z" fill="#164090"/>
<path d="M41.3443 70.1746C42.8323 69.2501 44.2805 68.4095 45.6962 67.5173C46.3758 67.089 46.9759 66.9312 47.6243 67.5487C47.8573 67.7706 48.1488 67.9568 48.4463 68.081C51.2776 69.2625 50.5596 71.735 50.5751 73.9328C50.5761 74.0803 50.4113 74.2821 50.269 74.3689C49.1756 75.0357 48.0784 75.6979 46.9576 76.3165C46.7413 76.4358 46.3616 76.4627 46.1494 76.3533C44.6641 75.588 43.1907 74.7967 41.7457 73.9582C41.4972 73.814 41.2739 73.4108 41.2602 73.1168C41.2154 72.1596 41.273 71.1975 41.3443 70.1746Z" fill="#164090"/>
</g>
<defs>
<filter id="filter0_i_1098_2462" x="-2" y="0" width="95.053" height="188.682" filterUnits="userSpaceOnUse" color-interpolation-filters="sRGB">
<feFlood flood-opacity="0" result="BackgroundImageFix"/>
<feBlend mode="normal" in="SourceGraphic" in2="BackgroundImageFix" result="shape"/>
<feColorMatrix in="SourceAlpha" type="matrix" values="0 0 0 0 0 0 0 0 0 0 0 0 0 0 0 0 0 0 127 0" result="hardAlpha"/>
<feOffset dx="-2" dy="3"/>
<feGaussianBlur stdDeviation="1"/>
<feComposite in2="hardAlpha" operator="arithmetic" k2="-1" k3="1"/>
<feColorMatrix type="matrix" values="0 0 0 0 0 0 0 0 0 0 0 0 0 0 0 0 0 0 0.3 0"/>
<feBlend mode="normal" in2="shape" result="effect1_innerShadow_1098_2462"/>
</filter>
</defs>
</svg>
