<svg width="2009" height="1451" viewBox="0 0 2009 1451" fill="none" xmlns="http://www.w3.org/2000/svg">
<g filter="url(#filter0_ii_106_437)">
<path d="M361.557 992.368C363.075 991.518 364.925 991.518 366.443 992.368L476.624 1054.07C478.203 1054.95 479.181 1056.62 479.181 1058.43V1181.57C479.181 1183.38 478.203 1185.05 476.624 1185.93L366.443 1247.63C364.925 1248.48 363.075 1248.48 361.557 1247.63L251.376 1185.93C249.797 1185.05 248.819 1183.38 248.819 1181.57V1058.43C248.819 1056.62 249.797 1054.95 251.376 1054.07L361.557 992.368Z" fill="#E9AF43"/>
</g>
<g filter="url(#filter1_ii_106_437)">
<path d="M245.557 1184.37C247.075 1183.52 248.925 1183.52 250.443 1184.37L360.624 1246.07C362.203 1246.95 363.181 1248.62 363.181 1250.43V1373.57C363.181 1375.38 362.203 1377.05 360.624 1377.93L250.443 1439.63C248.925 1440.48 247.075 1440.48 245.557 1439.63L135.376 1377.93C133.797 1377.05 132.819 1375.38 132.819 1373.57V1250.43C132.819 1248.62 133.797 1246.95 135.376 1246.07L245.557 1184.37Z" fill="#E9AF43"/>
</g>
<g filter="url(#filter2_di_106_437)">
<path d="M591.557 992.368C593.075 991.518 594.925 991.518 596.443 992.368L706.624 1054.07C708.203 1054.95 709.181 1056.62 709.181 1058.43V1181.57C709.181 1183.38 708.203 1185.05 706.624 1185.93L596.443 1247.63C594.925 1248.48 593.075 1248.48 591.557 1247.63L481.376 1185.93C479.797 1185.05 478.819 1183.38 478.819 1181.57V1058.43C478.819 1056.62 479.797 1054.95 481.376 1054.07L591.557 992.368Z" fill="#164092"/>
</g>
<g filter="url(#filter3_di_106_437)">
<path d="M475.557 1185.37C477.075 1184.52 478.925 1184.52 480.443 1185.37L590.624 1247.07C592.203 1247.95 593.181 1249.62 593.181 1251.43V1374.57C593.181 1376.38 592.203 1378.05 590.624 1378.93L480.443 1440.63C478.925 1441.48 477.075 1441.48 475.557 1440.63L365.376 1378.93C363.797 1378.05 362.819 1376.38 362.819 1374.57V1251.43C362.819 1249.62 363.797 1247.95 365.376 1247.07L475.557 1185.37Z" fill="#164092"/>
</g>
<g filter="url(#filter4_ii_106_437)">
<path d="M1051.56 992.368C1053.07 991.518 1054.93 991.518 1056.44 992.368L1166.62 1054.07C1168.2 1054.95 1169.18 1056.62 1169.18 1058.43V1181.57C1169.18 1183.38 1168.2 1185.05 1166.62 1185.93L1056.44 1247.63C1054.93 1248.48 1053.07 1248.48 1051.56 1247.63L941.376 1185.93C939.797 1185.05 938.819 1183.38 938.819 1181.57V1058.43C938.819 1056.62 939.797 1054.95 941.376 1054.07L1051.56 992.368Z" fill="#E9AF43"/>
</g>
<g filter="url(#filter5_ii_106_437)">
<path d="M705.557 1184.37C707.075 1183.52 708.925 1183.52 710.443 1184.37L820.624 1246.07C822.203 1246.95 823.181 1248.62 823.181 1250.43V1373.57C823.181 1375.38 822.203 1377.05 820.624 1377.93L710.443 1439.63C708.925 1440.48 707.075 1440.48 705.557 1439.63L595.376 1377.93C593.797 1377.05 592.819 1375.38 592.819 1373.57V1250.43C592.819 1248.62 593.797 1246.95 595.376 1246.07L705.557 1184.37Z" fill="#E9AF43"/>
</g>
<g filter="url(#filter6_ii_106_437)">
<path d="M706.557 799.368C708.075 798.518 709.925 798.518 711.443 799.368L821.624 861.068C823.203 861.952 824.181 863.621 824.181 865.431V988.569C824.181 990.379 823.203 992.048 821.624 992.932L711.443 1054.63C709.925 1055.48 708.075 1055.48 706.557 1054.63L596.376 992.932C594.797 992.048 593.819 990.379 593.819 988.569V865.431C593.819 863.621 594.797 861.952 596.376 861.068L706.557 799.368Z" fill="#E9AF43"/>
</g>
<g filter="url(#filter7_di_106_437)">
<path d="M821.557 991.368C823.075 990.518 824.925 990.518 826.443 991.368L936.624 1053.07C938.203 1053.95 939.181 1055.62 939.181 1057.43V1180.57C939.181 1182.38 938.203 1184.05 936.624 1184.93L826.443 1246.63C824.925 1247.48 823.075 1247.48 821.557 1246.63L711.376 1184.93C709.797 1184.05 708.819 1182.38 708.819 1180.57V1057.43C708.819 1055.62 709.797 1053.95 711.376 1053.07L821.557 991.368Z" fill="#164092"/>
</g>
<g filter="url(#filter8_di_106_437)">
<path d="M935.557 1184.37C937.075 1183.52 938.925 1183.52 940.443 1184.37L1050.62 1246.07C1052.2 1246.95 1053.18 1248.62 1053.18 1250.43V1373.57C1053.18 1375.38 1052.2 1377.05 1050.62 1377.93L940.443 1439.63C938.925 1440.48 937.075 1440.48 935.557 1439.63L825.376 1377.93C823.797 1377.05 822.819 1375.38 822.819 1373.57V1250.43C822.819 1248.62 823.797 1246.95 825.376 1246.07L935.557 1184.37Z" fill="#164092"/>
</g>
<g filter="url(#filter9_ii_106_437)">
<path d="M1281.56 991.368C1283.07 990.518 1284.93 990.518 1286.44 991.368L1396.62 1053.07C1398.2 1053.95 1399.18 1055.62 1399.18 1057.43V1180.57C1399.18 1182.38 1398.2 1184.05 1396.62 1184.93L1286.44 1246.63C1284.93 1247.48 1283.07 1247.48 1281.56 1246.63L1171.38 1184.93C1169.8 1184.05 1168.82 1182.38 1168.82 1180.57V1057.43C1168.82 1055.62 1169.8 1053.95 1171.38 1053.07L1281.56 991.368Z" fill="#E9AF43"/>
</g>
<g filter="url(#filter10_ii_106_437)">
<path d="M1164.56 1183.37C1166.07 1182.52 1167.93 1182.52 1169.44 1183.37L1279.62 1245.07C1281.2 1245.95 1282.18 1247.62 1282.18 1249.43V1372.57C1282.18 1374.38 1281.2 1376.05 1279.62 1376.93L1169.44 1438.63C1167.93 1439.48 1166.07 1439.48 1164.56 1438.63L1054.38 1376.93C1052.8 1376.05 1051.82 1374.38 1051.82 1372.57V1249.43C1051.82 1247.62 1052.8 1245.95 1054.38 1245.07L1164.56 1183.37Z" fill="#E9AF43"/>
</g>
<g filter="url(#filter11_di_106_437)">
<path d="M1394.56 1184.37C1396.07 1183.52 1397.93 1183.52 1399.44 1184.37L1509.62 1246.07C1511.2 1246.95 1512.18 1248.62 1512.18 1250.43V1373.57C1512.18 1375.38 1511.2 1377.05 1509.62 1377.93L1399.44 1439.63C1397.93 1440.48 1396.07 1440.48 1394.56 1439.63L1284.38 1377.93C1282.8 1377.05 1281.82 1375.38 1281.82 1373.57V1250.43C1281.82 1248.62 1282.8 1246.95 1284.38 1246.07L1394.56 1184.37Z" fill="#164092"/>
</g>
<g filter="url(#filter12_ii_106_437)">
<path d="M1624.56 1184.37C1626.07 1183.52 1627.93 1183.52 1629.44 1184.37L1739.62 1246.07C1741.2 1246.95 1742.18 1248.62 1742.18 1250.43V1373.57C1742.18 1375.38 1741.2 1377.05 1739.62 1377.93L1629.44 1439.63C1627.93 1440.48 1626.07 1440.48 1624.56 1439.63L1514.38 1377.93C1512.8 1377.05 1511.82 1375.38 1511.82 1373.57V1250.43C1511.82 1248.62 1512.8 1246.95 1514.38 1246.07L1624.56 1184.37Z" fill="#E9AF43"/>
</g>
<g filter="url(#filter13_di_106_437)">
<path d="M1854.56 1183.37C1856.07 1182.52 1857.93 1182.52 1859.44 1183.37L1969.62 1245.07C1971.2 1245.95 1972.18 1247.62 1972.18 1249.43V1372.57C1972.18 1374.38 1971.2 1376.05 1969.62 1376.93L1859.44 1438.63C1857.93 1439.48 1856.07 1439.48 1854.56 1438.63L1744.38 1376.93C1742.8 1376.05 1741.82 1374.38 1741.82 1372.57V1249.43C1741.82 1247.62 1742.8 1245.95 1744.38 1245.07L1854.56 1183.37Z" fill="#164092"/>
</g>
<g filter="url(#filter14_di_106_437)">
<path d="M1738.56 990.368C1740.07 989.518 1741.93 989.518 1743.44 990.368L1853.62 1052.07C1855.2 1052.95 1856.18 1054.62 1856.18 1056.43V1179.57C1856.18 1181.38 1855.2 1183.05 1853.62 1183.93L1743.44 1245.63C1741.93 1246.48 1740.07 1246.48 1738.56 1245.63L1628.38 1183.93C1626.8 1183.05 1625.82 1181.38 1625.82 1179.57V1056.43C1625.82 1054.62 1626.8 1052.95 1628.38 1052.07L1738.56 990.368Z" fill="#164092"/>
</g>
<g filter="url(#filter15_ii_106_437)">
<path d="M1852.56 797.368C1854.07 796.518 1855.93 796.518 1857.44 797.368L1967.62 859.068C1969.2 859.952 1970.18 861.621 1970.18 863.431V986.569C1970.18 988.379 1969.2 990.048 1967.62 990.932L1857.44 1052.63C1855.93 1053.48 1854.07 1053.48 1852.56 1052.63L1742.38 990.932C1740.8 990.048 1739.82 988.379 1739.82 986.569V863.431C1739.82 861.621 1740.8 859.952 1742.38 859.068L1852.56 797.368Z" fill="#E9AF43"/>
</g>
<g filter="url(#filter16_di_106_437)">
<path d="M1509.56 991.368C1511.07 990.518 1512.93 990.518 1514.44 991.368L1624.62 1053.07C1626.2 1053.95 1627.18 1055.62 1627.18 1057.43V1180.57C1627.18 1182.38 1626.2 1184.05 1624.62 1184.93L1514.44 1246.63C1512.93 1247.48 1511.07 1247.48 1509.56 1246.63L1399.38 1184.93C1397.8 1184.05 1396.82 1182.38 1396.82 1180.57V1057.43C1396.82 1055.62 1397.8 1053.95 1399.38 1053.07L1509.56 991.368Z" fill="#164092"/>
</g>
<g filter="url(#filter17_di_106_437)">
<path d="M1623.56 797.368C1625.07 796.518 1626.93 796.518 1628.44 797.368L1738.62 859.068C1740.2 859.952 1741.18 861.621 1741.18 863.431V986.569C1741.18 988.379 1740.2 990.048 1738.62 990.932L1628.44 1052.63C1626.93 1053.48 1625.07 1053.48 1623.56 1052.63L1513.38 990.932C1511.8 990.048 1510.82 988.379 1510.82 986.569V863.431C1510.82 861.621 1511.8 859.952 1513.38 859.068L1623.56 797.368Z" fill="#164092"/>
</g>
<g filter="url(#filter18_ii_106_437)">
<path d="M1739.56 218.368C1741.07 217.518 1742.93 217.518 1744.44 218.368L1854.62 280.068C1856.2 280.952 1857.18 282.621 1857.18 284.431V407.569C1857.18 409.379 1856.2 411.048 1854.62 411.932L1744.44 473.632C1742.93 474.482 1741.07 474.482 1739.56 473.632L1629.38 411.932C1627.8 411.048 1626.82 409.379 1626.82 407.569V284.431C1626.82 282.621 1627.8 280.952 1629.38 280.068L1739.56 218.368Z" fill="#E9AF43"/>
</g>
<g filter="url(#filter19_ii_106_437)">
<path d="M1739.56 604.368C1741.07 603.518 1742.93 603.518 1744.44 604.368L1854.62 666.068C1856.2 666.952 1857.18 668.621 1857.18 670.431V793.569C1857.18 795.379 1856.2 797.048 1854.62 797.932L1744.44 859.632C1742.93 860.482 1741.07 860.482 1739.56 859.632L1629.38 797.932C1627.8 797.048 1626.82 795.379 1626.82 793.569V670.431C1626.82 668.621 1627.8 666.952 1629.38 666.068L1739.56 604.368Z" fill="#E9AF43"/>
</g>
<g filter="url(#filter20_ii_106_437)">
<path d="M1397.56 800.368C1399.07 799.518 1400.93 799.518 1402.44 800.368L1512.62 862.068C1514.2 862.952 1515.18 864.621 1515.18 866.431V989.569C1515.18 991.379 1514.2 993.048 1512.62 993.932L1402.44 1055.63C1400.93 1056.48 1399.07 1056.48 1397.56 1055.63L1287.38 993.932C1285.8 993.048 1284.82 991.379 1284.82 989.569V866.431C1284.82 864.621 1285.8 862.952 1287.38 862.068L1397.56 800.368Z" fill="#E9AF43"/>
</g>
<g filter="url(#filter21_di_106_437)">
<path d="M1855.56 411.368C1857.07 410.518 1858.93 410.518 1860.44 411.368L1970.62 473.068C1972.2 473.952 1973.18 475.621 1973.18 477.431V600.569C1973.18 602.379 1972.2 604.048 1970.62 604.932L1860.44 666.632C1858.93 667.482 1857.07 667.482 1855.56 666.632L1745.38 604.932C1743.8 604.048 1742.82 602.379 1742.82 600.569V477.431C1742.82 475.621 1743.8 473.952 1745.38 473.068L1855.56 411.368Z" fill="#164092"/>
</g>
<g filter="url(#filter22_ii_106_437)">
<path d="M1625.56 412.368C1627.07 411.518 1628.93 411.518 1630.44 412.368L1740.62 474.068C1742.2 474.952 1743.18 476.621 1743.18 478.431V601.569C1743.18 603.379 1742.2 605.048 1740.62 605.932L1630.44 667.632C1628.93 668.482 1627.07 668.482 1625.56 667.632L1515.38 605.932C1513.8 605.048 1512.82 603.379 1512.82 601.569V478.431C1512.82 476.621 1513.8 474.952 1515.38 474.068L1625.56 412.368Z" fill="#E9AF43"/>
</g>
<g filter="url(#filter23_di_106_437)">
<path d="M1854.56 30.368C1856.07 29.5181 1857.93 29.5181 1859.44 30.368L1969.62 92.0681C1971.2 92.9524 1972.18 94.6209 1972.18 96.4307V219.569C1972.18 221.379 1971.2 223.048 1969.62 223.932L1859.44 285.632C1857.93 286.482 1856.07 286.482 1854.56 285.632L1744.38 223.932C1742.8 223.048 1741.82 221.379 1741.82 219.569V96.4307C1741.82 94.6209 1742.8 92.9524 1744.38 92.0681L1854.56 30.368Z" fill="#164092"/>
</g>
<g filter="url(#filter24_di_106_437)">
<path d="M1624.56 30.368C1626.07 29.5181 1627.93 29.5181 1629.44 30.368L1739.62 92.0681C1741.2 92.9524 1742.18 94.6209 1742.18 96.4307V219.569C1742.18 221.379 1741.2 223.048 1739.62 223.932L1629.44 285.632C1627.93 286.482 1626.07 286.482 1624.56 285.632L1514.38 223.932C1512.8 223.048 1511.82 221.379 1511.82 219.569V96.4307C1511.82 94.6209 1512.8 92.9524 1514.38 92.0681L1624.56 30.368Z" fill="#164092"/>
</g>
<defs>
<filter id="filter0_ii_106_437" x="231" y="979" width="273" height="276" filterUnits="userSpaceOnUse" color-interpolation-filters="sRGB">
<feFlood flood-opacity="0" result="BackgroundImageFix"/>
<feBlend mode="normal" in="SourceGraphic" in2="BackgroundImageFix" result="shape"/>
<feColorMatrix in="SourceAlpha" type="matrix" values="0 0 0 0 0 0 0 0 0 0 0 0 0 0 0 0 0 0 127 0" result="hardAlpha"/>
<feOffset dx="7" dy="-12"/>
<feGaussianBlur stdDeviation="6.75"/>
<feComposite in2="hardAlpha" operator="arithmetic" k2="-1" k3="1"/>
<feColorMatrix type="matrix" values="0 0 0 0 0 0 0 0 0 0 0 0 0 0 0 0 0 0 0.35 0"/>
<feBlend mode="normal" in2="shape" result="effect1_innerShadow_106_437"/>
<feColorMatrix in="SourceAlpha" type="matrix" values="0 0 0 0 0 0 0 0 0 0 0 0 0 0 0 0 0 0 127 0" result="hardAlpha"/>
<feOffset dx="1" dy="6"/>
<feGaussianBlur stdDeviation="5.6"/>
<feComposite in2="hardAlpha" operator="arithmetic" k2="-1" k3="1"/>
<feColorMatrix type="matrix" values="0 0 0 0 0 0 0 0 0 0 0 0 0 0 0 0 0 0 0.25 0"/>
<feBlend mode="normal" in2="effect1_innerShadow_106_437" result="effect2_innerShadow_106_437"/>
</filter>
<filter id="filter1_ii_106_437" x="115" y="1171" width="273" height="276" filterUnits="userSpaceOnUse" color-interpolation-filters="sRGB">
<feFlood flood-opacity="0" result="BackgroundImageFix"/>
<feBlend mode="normal" in="SourceGraphic" in2="BackgroundImageFix" result="shape"/>
<feColorMatrix in="SourceAlpha" type="matrix" values="0 0 0 0 0 0 0 0 0 0 0 0 0 0 0 0 0 0 127 0" result="hardAlpha"/>
<feOffset dx="7" dy="-12"/>
<feGaussianBlur stdDeviation="6.75"/>
<feComposite in2="hardAlpha" operator="arithmetic" k2="-1" k3="1"/>
<feColorMatrix type="matrix" values="0 0 0 0 0 0 0 0 0 0 0 0 0 0 0 0 0 0 0.35 0"/>
<feBlend mode="normal" in2="shape" result="effect1_innerShadow_106_437"/>
<feColorMatrix in="SourceAlpha" type="matrix" values="0 0 0 0 0 0 0 0 0 0 0 0 0 0 0 0 0 0 127 0" result="hardAlpha"/>
<feOffset dx="1" dy="6"/>
<feGaussianBlur stdDeviation="5.6"/>
<feComposite in2="hardAlpha" operator="arithmetic" k2="-1" k3="1"/>
<feColorMatrix type="matrix" values="0 0 0 0 0 0 0 0 0 0 0 0 0 0 0 0 0 0 0.25 0"/>
<feBlend mode="normal" in2="effect1_innerShadow_106_437" result="effect2_innerShadow_106_437"/>
</filter>
<filter id="filter2_di_106_437" x="457.3" y="961.3" width="305.4" height="297.4" filterUnits="userSpaceOnUse" color-interpolation-filters="sRGB">
<feFlood flood-opacity="0" result="BackgroundImageFix"/>
<feColorMatrix in="SourceAlpha" type="matrix" values="0 0 0 0 0 0 0 0 0 0 0 0 0 0 0 0 0 0 127 0" result="hardAlpha"/>
<feOffset dx="16" dy="-10"/>
<feGaussianBlur stdDeviation="9.85"/>
<feComposite in2="hardAlpha" operator="out"/>
<feColorMatrix type="matrix" values="0 0 0 0 0 0 0 0 0 0 0 0 0 0 0 0 0 0 0.4 0"/>
<feBlend mode="normal" in2="BackgroundImageFix" result="effect1_dropShadow_106_437"/>
<feBlend mode="normal" in="SourceGraphic" in2="effect1_dropShadow_106_437" result="shape"/>
<feColorMatrix in="SourceAlpha" type="matrix" values="0 0 0 0 0 0 0 0 0 0 0 0 0 0 0 0 0 0 127 0" result="hardAlpha"/>
<feOffset dx="2" dy="-3"/>
<feGaussianBlur stdDeviation="7.7"/>
<feComposite in2="hardAlpha" operator="arithmetic" k2="-1" k3="1"/>
<feColorMatrix type="matrix" values="0 0 0 0 0 0 0 0 0 0 0 0 0 0 0 0 0 0 0.35 0"/>
<feBlend mode="hard-light" in2="shape" result="effect2_innerShadow_106_437"/>
</filter>
<filter id="filter3_di_106_437" x="341.3" y="1154.3" width="305.4" height="297.4" filterUnits="userSpaceOnUse" color-interpolation-filters="sRGB">
<feFlood flood-opacity="0" result="BackgroundImageFix"/>
<feColorMatrix in="SourceAlpha" type="matrix" values="0 0 0 0 0 0 0 0 0 0 0 0 0 0 0 0 0 0 127 0" result="hardAlpha"/>
<feOffset dx="16" dy="-10"/>
<feGaussianBlur stdDeviation="9.85"/>
<feComposite in2="hardAlpha" operator="out"/>
<feColorMatrix type="matrix" values="0 0 0 0 0 0 0 0 0 0 0 0 0 0 0 0 0 0 0.4 0"/>
<feBlend mode="normal" in2="BackgroundImageFix" result="effect1_dropShadow_106_437"/>
<feBlend mode="normal" in="SourceGraphic" in2="effect1_dropShadow_106_437" result="shape"/>
<feColorMatrix in="SourceAlpha" type="matrix" values="0 0 0 0 0 0 0 0 0 0 0 0 0 0 0 0 0 0 127 0" result="hardAlpha"/>
<feOffset dx="2" dy="-3"/>
<feGaussianBlur stdDeviation="7.7"/>
<feComposite in2="hardAlpha" operator="arithmetic" k2="-1" k3="1"/>
<feColorMatrix type="matrix" values="0 0 0 0 0 0 0 0 0 0 0 0 0 0 0 0 0 0 0.35 0"/>
<feBlend mode="hard-light" in2="shape" result="effect2_innerShadow_106_437"/>
</filter>
<filter id="filter4_ii_106_437" x="921" y="979" width="273" height="276" filterUnits="userSpaceOnUse" color-interpolation-filters="sRGB">
<feFlood flood-opacity="0" result="BackgroundImageFix"/>
<feBlend mode="normal" in="SourceGraphic" in2="BackgroundImageFix" result="shape"/>
<feColorMatrix in="SourceAlpha" type="matrix" values="0 0 0 0 0 0 0 0 0 0 0 0 0 0 0 0 0 0 127 0" result="hardAlpha"/>
<feOffset dx="7" dy="-12"/>
<feGaussianBlur stdDeviation="6.75"/>
<feComposite in2="hardAlpha" operator="arithmetic" k2="-1" k3="1"/>
<feColorMatrix type="matrix" values="0 0 0 0 0 0 0 0 0 0 0 0 0 0 0 0 0 0 0.35 0"/>
<feBlend mode="normal" in2="shape" result="effect1_innerShadow_106_437"/>
<feColorMatrix in="SourceAlpha" type="matrix" values="0 0 0 0 0 0 0 0 0 0 0 0 0 0 0 0 0 0 127 0" result="hardAlpha"/>
<feOffset dx="1" dy="6"/>
<feGaussianBlur stdDeviation="5.6"/>
<feComposite in2="hardAlpha" operator="arithmetic" k2="-1" k3="1"/>
<feColorMatrix type="matrix" values="0 0 0 0 0 0 0 0 0 0 0 0 0 0 0 0 0 0 0.25 0"/>
<feBlend mode="normal" in2="effect1_innerShadow_106_437" result="effect2_innerShadow_106_437"/>
</filter>
<filter id="filter5_ii_106_437" x="575" y="1171" width="273" height="276" filterUnits="userSpaceOnUse" color-interpolation-filters="sRGB">
<feFlood flood-opacity="0" result="BackgroundImageFix"/>
<feBlend mode="normal" in="SourceGraphic" in2="BackgroundImageFix" result="shape"/>
<feColorMatrix in="SourceAlpha" type="matrix" values="0 0 0 0 0 0 0 0 0 0 0 0 0 0 0 0 0 0 127 0" result="hardAlpha"/>
<feOffset dx="7" dy="-12"/>
<feGaussianBlur stdDeviation="6.75"/>
<feComposite in2="hardAlpha" operator="arithmetic" k2="-1" k3="1"/>
<feColorMatrix type="matrix" values="0 0 0 0 0 0 0 0 0 0 0 0 0 0 0 0 0 0 0.35 0"/>
<feBlend mode="normal" in2="shape" result="effect1_innerShadow_106_437"/>
<feColorMatrix in="SourceAlpha" type="matrix" values="0 0 0 0 0 0 0 0 0 0 0 0 0 0 0 0 0 0 127 0" result="hardAlpha"/>
<feOffset dx="1" dy="6"/>
<feGaussianBlur stdDeviation="5.6"/>
<feComposite in2="hardAlpha" operator="arithmetic" k2="-1" k3="1"/>
<feColorMatrix type="matrix" values="0 0 0 0 0 0 0 0 0 0 0 0 0 0 0 0 0 0 0.25 0"/>
<feBlend mode="normal" in2="effect1_innerShadow_106_437" result="effect2_innerShadow_106_437"/>
</filter>
<filter id="filter6_ii_106_437" x="576" y="786" width="273" height="276" filterUnits="userSpaceOnUse" color-interpolation-filters="sRGB">
<feFlood flood-opacity="0" result="BackgroundImageFix"/>
<feBlend mode="normal" in="SourceGraphic" in2="BackgroundImageFix" result="shape"/>
<feColorMatrix in="SourceAlpha" type="matrix" values="0 0 0 0 0 0 0 0 0 0 0 0 0 0 0 0 0 0 127 0" result="hardAlpha"/>
<feOffset dx="7" dy="-12"/>
<feGaussianBlur stdDeviation="6.75"/>
<feComposite in2="hardAlpha" operator="arithmetic" k2="-1" k3="1"/>
<feColorMatrix type="matrix" values="0 0 0 0 0 0 0 0 0 0 0 0 0 0 0 0 0 0 0.35 0"/>
<feBlend mode="normal" in2="shape" result="effect1_innerShadow_106_437"/>
<feColorMatrix in="SourceAlpha" type="matrix" values="0 0 0 0 0 0 0 0 0 0 0 0 0 0 0 0 0 0 127 0" result="hardAlpha"/>
<feOffset dx="1" dy="6"/>
<feGaussianBlur stdDeviation="5.6"/>
<feComposite in2="hardAlpha" operator="arithmetic" k2="-1" k3="1"/>
<feColorMatrix type="matrix" values="0 0 0 0 0 0 0 0 0 0 0 0 0 0 0 0 0 0 0.25 0"/>
<feBlend mode="normal" in2="effect1_innerShadow_106_437" result="effect2_innerShadow_106_437"/>
</filter>
<filter id="filter7_di_106_437" x="687.3" y="960.3" width="305.4" height="297.4" filterUnits="userSpaceOnUse" color-interpolation-filters="sRGB">
<feFlood flood-opacity="0" result="BackgroundImageFix"/>
<feColorMatrix in="SourceAlpha" type="matrix" values="0 0 0 0 0 0 0 0 0 0 0 0 0 0 0 0 0 0 127 0" result="hardAlpha"/>
<feOffset dx="16" dy="-10"/>
<feGaussianBlur stdDeviation="9.85"/>
<feComposite in2="hardAlpha" operator="out"/>
<feColorMatrix type="matrix" values="0 0 0 0 0 0 0 0 0 0 0 0 0 0 0 0 0 0 0.4 0"/>
<feBlend mode="normal" in2="BackgroundImageFix" result="effect1_dropShadow_106_437"/>
<feBlend mode="normal" in="SourceGraphic" in2="effect1_dropShadow_106_437" result="shape"/>
<feColorMatrix in="SourceAlpha" type="matrix" values="0 0 0 0 0 0 0 0 0 0 0 0 0 0 0 0 0 0 127 0" result="hardAlpha"/>
<feOffset dx="2" dy="-3"/>
<feGaussianBlur stdDeviation="7.7"/>
<feComposite in2="hardAlpha" operator="arithmetic" k2="-1" k3="1"/>
<feColorMatrix type="matrix" values="0 0 0 0 0 0 0 0 0 0 0 0 0 0 0 0 0 0 0.35 0"/>
<feBlend mode="hard-light" in2="shape" result="effect2_innerShadow_106_437"/>
</filter>
<filter id="filter8_di_106_437" x="801.3" y="1153.3" width="305.4" height="297.4" filterUnits="userSpaceOnUse" color-interpolation-filters="sRGB">
<feFlood flood-opacity="0" result="BackgroundImageFix"/>
<feColorMatrix in="SourceAlpha" type="matrix" values="0 0 0 0 0 0 0 0 0 0 0 0 0 0 0 0 0 0 127 0" result="hardAlpha"/>
<feOffset dx="16" dy="-10"/>
<feGaussianBlur stdDeviation="9.85"/>
<feComposite in2="hardAlpha" operator="out"/>
<feColorMatrix type="matrix" values="0 0 0 0 0 0 0 0 0 0 0 0 0 0 0 0 0 0 0.4 0"/>
<feBlend mode="normal" in2="BackgroundImageFix" result="effect1_dropShadow_106_437"/>
<feBlend mode="normal" in="SourceGraphic" in2="effect1_dropShadow_106_437" result="shape"/>
<feColorMatrix in="SourceAlpha" type="matrix" values="0 0 0 0 0 0 0 0 0 0 0 0 0 0 0 0 0 0 127 0" result="hardAlpha"/>
<feOffset dx="2" dy="-3"/>
<feGaussianBlur stdDeviation="7.7"/>
<feComposite in2="hardAlpha" operator="arithmetic" k2="-1" k3="1"/>
<feColorMatrix type="matrix" values="0 0 0 0 0 0 0 0 0 0 0 0 0 0 0 0 0 0 0.35 0"/>
<feBlend mode="hard-light" in2="shape" result="effect2_innerShadow_106_437"/>
</filter>
<filter id="filter9_ii_106_437" x="1151" y="978" width="273" height="276" filterUnits="userSpaceOnUse" color-interpolation-filters="sRGB">
<feFlood flood-opacity="0" result="BackgroundImageFix"/>
<feBlend mode="normal" in="SourceGraphic" in2="BackgroundImageFix" result="shape"/>
<feColorMatrix in="SourceAlpha" type="matrix" values="0 0 0 0 0 0 0 0 0 0 0 0 0 0 0 0 0 0 127 0" result="hardAlpha"/>
<feOffset dx="7" dy="-12"/>
<feGaussianBlur stdDeviation="6.75"/>
<feComposite in2="hardAlpha" operator="arithmetic" k2="-1" k3="1"/>
<feColorMatrix type="matrix" values="0 0 0 0 0 0 0 0 0 0 0 0 0 0 0 0 0 0 0.35 0"/>
<feBlend mode="normal" in2="shape" result="effect1_innerShadow_106_437"/>
<feColorMatrix in="SourceAlpha" type="matrix" values="0 0 0 0 0 0 0 0 0 0 0 0 0 0 0 0 0 0 127 0" result="hardAlpha"/>
<feOffset dx="1" dy="6"/>
<feGaussianBlur stdDeviation="5.6"/>
<feComposite in2="hardAlpha" operator="arithmetic" k2="-1" k3="1"/>
<feColorMatrix type="matrix" values="0 0 0 0 0 0 0 0 0 0 0 0 0 0 0 0 0 0 0.25 0"/>
<feBlend mode="normal" in2="effect1_innerShadow_106_437" result="effect2_innerShadow_106_437"/>
</filter>
<filter id="filter10_ii_106_437" x="1034" y="1170" width="273" height="276" filterUnits="userSpaceOnUse" color-interpolation-filters="sRGB">
<feFlood flood-opacity="0" result="BackgroundImageFix"/>
<feBlend mode="normal" in="SourceGraphic" in2="BackgroundImageFix" result="shape"/>
<feColorMatrix in="SourceAlpha" type="matrix" values="0 0 0 0 0 0 0 0 0 0 0 0 0 0 0 0 0 0 127 0" result="hardAlpha"/>
<feOffset dx="7" dy="-12"/>
<feGaussianBlur stdDeviation="6.75"/>
<feComposite in2="hardAlpha" operator="arithmetic" k2="-1" k3="1"/>
<feColorMatrix type="matrix" values="0 0 0 0 0 0 0 0 0 0 0 0 0 0 0 0 0 0 0.35 0"/>
<feBlend mode="normal" in2="shape" result="effect1_innerShadow_106_437"/>
<feColorMatrix in="SourceAlpha" type="matrix" values="0 0 0 0 0 0 0 0 0 0 0 0 0 0 0 0 0 0 127 0" result="hardAlpha"/>
<feOffset dx="1" dy="6"/>
<feGaussianBlur stdDeviation="5.6"/>
<feComposite in2="hardAlpha" operator="arithmetic" k2="-1" k3="1"/>
<feColorMatrix type="matrix" values="0 0 0 0 0 0 0 0 0 0 0 0 0 0 0 0 0 0 0.25 0"/>
<feBlend mode="normal" in2="effect1_innerShadow_106_437" result="effect2_innerShadow_106_437"/>
</filter>
<filter id="filter11_di_106_437" x="1260.3" y="1153.3" width="305.4" height="297.4" filterUnits="userSpaceOnUse" color-interpolation-filters="sRGB">
<feFlood flood-opacity="0" result="BackgroundImageFix"/>
<feColorMatrix in="SourceAlpha" type="matrix" values="0 0 0 0 0 0 0 0 0 0 0 0 0 0 0 0 0 0 127 0" result="hardAlpha"/>
<feOffset dx="16" dy="-10"/>
<feGaussianBlur stdDeviation="9.85"/>
<feComposite in2="hardAlpha" operator="out"/>
<feColorMatrix type="matrix" values="0 0 0 0 0 0 0 0 0 0 0 0 0 0 0 0 0 0 0.4 0"/>
<feBlend mode="normal" in2="BackgroundImageFix" result="effect1_dropShadow_106_437"/>
<feBlend mode="normal" in="SourceGraphic" in2="effect1_dropShadow_106_437" result="shape"/>
<feColorMatrix in="SourceAlpha" type="matrix" values="0 0 0 0 0 0 0 0 0 0 0 0 0 0 0 0 0 0 127 0" result="hardAlpha"/>
<feOffset dx="2" dy="-3"/>
<feGaussianBlur stdDeviation="7.7"/>
<feComposite in2="hardAlpha" operator="arithmetic" k2="-1" k3="1"/>
<feColorMatrix type="matrix" values="0 0 0 0 0 0 0 0 0 0 0 0 0 0 0 0 0 0 0.35 0"/>
<feBlend mode="hard-light" in2="shape" result="effect2_innerShadow_106_437"/>
</filter>
<filter id="filter12_ii_106_437" x="1494" y="1171" width="273" height="276" filterUnits="userSpaceOnUse" color-interpolation-filters="sRGB">
<feFlood flood-opacity="0" result="BackgroundImageFix"/>
<feBlend mode="normal" in="SourceGraphic" in2="BackgroundImageFix" result="shape"/>
<feColorMatrix in="SourceAlpha" type="matrix" values="0 0 0 0 0 0 0 0 0 0 0 0 0 0 0 0 0 0 127 0" result="hardAlpha"/>
<feOffset dx="7" dy="-12"/>
<feGaussianBlur stdDeviation="6.75"/>
<feComposite in2="hardAlpha" operator="arithmetic" k2="-1" k3="1"/>
<feColorMatrix type="matrix" values="0 0 0 0 0 0 0 0 0 0 0 0 0 0 0 0 0 0 0.35 0"/>
<feBlend mode="normal" in2="shape" result="effect1_innerShadow_106_437"/>
<feColorMatrix in="SourceAlpha" type="matrix" values="0 0 0 0 0 0 0 0 0 0 0 0 0 0 0 0 0 0 127 0" result="hardAlpha"/>
<feOffset dx="1" dy="6"/>
<feGaussianBlur stdDeviation="5.6"/>
<feComposite in2="hardAlpha" operator="arithmetic" k2="-1" k3="1"/>
<feColorMatrix type="matrix" values="0 0 0 0 0 0 0 0 0 0 0 0 0 0 0 0 0 0 0.25 0"/>
<feBlend mode="normal" in2="effect1_innerShadow_106_437" result="effect2_innerShadow_106_437"/>
</filter>
<filter id="filter13_di_106_437" x="1720.3" y="1152.3" width="305.4" height="297.4" filterUnits="userSpaceOnUse" color-interpolation-filters="sRGB">
<feFlood flood-opacity="0" result="BackgroundImageFix"/>
<feColorMatrix in="SourceAlpha" type="matrix" values="0 0 0 0 0 0 0 0 0 0 0 0 0 0 0 0 0 0 127 0" result="hardAlpha"/>
<feOffset dx="16" dy="-10"/>
<feGaussianBlur stdDeviation="9.85"/>
<feComposite in2="hardAlpha" operator="out"/>
<feColorMatrix type="matrix" values="0 0 0 0 0 0 0 0 0 0 0 0 0 0 0 0 0 0 0.4 0"/>
<feBlend mode="normal" in2="BackgroundImageFix" result="effect1_dropShadow_106_437"/>
<feBlend mode="normal" in="SourceGraphic" in2="effect1_dropShadow_106_437" result="shape"/>
<feColorMatrix in="SourceAlpha" type="matrix" values="0 0 0 0 0 0 0 0 0 0 0 0 0 0 0 0 0 0 127 0" result="hardAlpha"/>
<feOffset dx="2" dy="-3"/>
<feGaussianBlur stdDeviation="7.7"/>
<feComposite in2="hardAlpha" operator="arithmetic" k2="-1" k3="1"/>
<feColorMatrix type="matrix" values="0 0 0 0 0 0 0 0 0 0 0 0 0 0 0 0 0 0 0.35 0"/>
<feBlend mode="hard-light" in2="shape" result="effect2_innerShadow_106_437"/>
</filter>
<filter id="filter14_di_106_437" x="1604.3" y="959.3" width="305.4" height="297.4" filterUnits="userSpaceOnUse" color-interpolation-filters="sRGB">
<feFlood flood-opacity="0" result="BackgroundImageFix"/>
<feColorMatrix in="SourceAlpha" type="matrix" values="0 0 0 0 0 0 0 0 0 0 0 0 0 0 0 0 0 0 127 0" result="hardAlpha"/>
<feOffset dx="16" dy="-10"/>
<feGaussianBlur stdDeviation="9.85"/>
<feComposite in2="hardAlpha" operator="out"/>
<feColorMatrix type="matrix" values="0 0 0 0 0 0 0 0 0 0 0 0 0 0 0 0 0 0 0.4 0"/>
<feBlend mode="normal" in2="BackgroundImageFix" result="effect1_dropShadow_106_437"/>
<feBlend mode="normal" in="SourceGraphic" in2="effect1_dropShadow_106_437" result="shape"/>
<feColorMatrix in="SourceAlpha" type="matrix" values="0 0 0 0 0 0 0 0 0 0 0 0 0 0 0 0 0 0 127 0" result="hardAlpha"/>
<feOffset dx="2" dy="-3"/>
<feGaussianBlur stdDeviation="7.7"/>
<feComposite in2="hardAlpha" operator="arithmetic" k2="-1" k3="1"/>
<feColorMatrix type="matrix" values="0 0 0 0 0 0 0 0 0 0 0 0 0 0 0 0 0 0 0.35 0"/>
<feBlend mode="hard-light" in2="shape" result="effect2_innerShadow_106_437"/>
</filter>
<filter id="filter15_ii_106_437" x="1722" y="784" width="273" height="276" filterUnits="userSpaceOnUse" color-interpolation-filters="sRGB">
<feFlood flood-opacity="0" result="BackgroundImageFix"/>
<feBlend mode="normal" in="SourceGraphic" in2="BackgroundImageFix" result="shape"/>
<feColorMatrix in="SourceAlpha" type="matrix" values="0 0 0 0 0 0 0 0 0 0 0 0 0 0 0 0 0 0 127 0" result="hardAlpha"/>
<feOffset dx="7" dy="-12"/>
<feGaussianBlur stdDeviation="6.75"/>
<feComposite in2="hardAlpha" operator="arithmetic" k2="-1" k3="1"/>
<feColorMatrix type="matrix" values="0 0 0 0 0 0 0 0 0 0 0 0 0 0 0 0 0 0 0.35 0"/>
<feBlend mode="normal" in2="shape" result="effect1_innerShadow_106_437"/>
<feColorMatrix in="SourceAlpha" type="matrix" values="0 0 0 0 0 0 0 0 0 0 0 0 0 0 0 0 0 0 127 0" result="hardAlpha"/>
<feOffset dx="1" dy="6"/>
<feGaussianBlur stdDeviation="5.6"/>
<feComposite in2="hardAlpha" operator="arithmetic" k2="-1" k3="1"/>
<feColorMatrix type="matrix" values="0 0 0 0 0 0 0 0 0 0 0 0 0 0 0 0 0 0 0.25 0"/>
<feBlend mode="normal" in2="effect1_innerShadow_106_437" result="effect2_innerShadow_106_437"/>
</filter>
<filter id="filter16_di_106_437" x="1375.3" y="960.3" width="305.4" height="297.4" filterUnits="userSpaceOnUse" color-interpolation-filters="sRGB">
<feFlood flood-opacity="0" result="BackgroundImageFix"/>
<feColorMatrix in="SourceAlpha" type="matrix" values="0 0 0 0 0 0 0 0 0 0 0 0 0 0 0 0 0 0 127 0" result="hardAlpha"/>
<feOffset dx="16" dy="-10"/>
<feGaussianBlur stdDeviation="9.85"/>
<feComposite in2="hardAlpha" operator="out"/>
<feColorMatrix type="matrix" values="0 0 0 0 0 0 0 0 0 0 0 0 0 0 0 0 0 0 0.4 0"/>
<feBlend mode="normal" in2="BackgroundImageFix" result="effect1_dropShadow_106_437"/>
<feBlend mode="normal" in="SourceGraphic" in2="effect1_dropShadow_106_437" result="shape"/>
<feColorMatrix in="SourceAlpha" type="matrix" values="0 0 0 0 0 0 0 0 0 0 0 0 0 0 0 0 0 0 127 0" result="hardAlpha"/>
<feOffset dx="2" dy="-3"/>
<feGaussianBlur stdDeviation="7.7"/>
<feComposite in2="hardAlpha" operator="arithmetic" k2="-1" k3="1"/>
<feColorMatrix type="matrix" values="0 0 0 0 0 0 0 0 0 0 0 0 0 0 0 0 0 0 0.35 0"/>
<feBlend mode="hard-light" in2="shape" result="effect2_innerShadow_106_437"/>
</filter>
<filter id="filter17_di_106_437" x="1489.3" y="766.3" width="305.4" height="297.4" filterUnits="userSpaceOnUse" color-interpolation-filters="sRGB">
<feFlood flood-opacity="0" result="BackgroundImageFix"/>
<feColorMatrix in="SourceAlpha" type="matrix" values="0 0 0 0 0 0 0 0 0 0 0 0 0 0 0 0 0 0 127 0" result="hardAlpha"/>
<feOffset dx="16" dy="-10"/>
<feGaussianBlur stdDeviation="9.85"/>
<feComposite in2="hardAlpha" operator="out"/>
<feColorMatrix type="matrix" values="0 0 0 0 0 0 0 0 0 0 0 0 0 0 0 0 0 0 0.4 0"/>
<feBlend mode="normal" in2="BackgroundImageFix" result="effect1_dropShadow_106_437"/>
<feBlend mode="normal" in="SourceGraphic" in2="effect1_dropShadow_106_437" result="shape"/>
<feColorMatrix in="SourceAlpha" type="matrix" values="0 0 0 0 0 0 0 0 0 0 0 0 0 0 0 0 0 0 127 0" result="hardAlpha"/>
<feOffset dx="2" dy="-3"/>
<feGaussianBlur stdDeviation="7.7"/>
<feComposite in2="hardAlpha" operator="arithmetic" k2="-1" k3="1"/>
<feColorMatrix type="matrix" values="0 0 0 0 0 0 0 0 0 0 0 0 0 0 0 0 0 0 0.35 0"/>
<feBlend mode="hard-light" in2="shape" result="effect2_innerShadow_106_437"/>
</filter>
<filter id="filter18_ii_106_437" x="1609" y="205" width="273" height="276" filterUnits="userSpaceOnUse" color-interpolation-filters="sRGB">
<feFlood flood-opacity="0" result="BackgroundImageFix"/>
<feBlend mode="normal" in="SourceGraphic" in2="BackgroundImageFix" result="shape"/>
<feColorMatrix in="SourceAlpha" type="matrix" values="0 0 0 0 0 0 0 0 0 0 0 0 0 0 0 0 0 0 127 0" result="hardAlpha"/>
<feOffset dx="7" dy="-12"/>
<feGaussianBlur stdDeviation="6.75"/>
<feComposite in2="hardAlpha" operator="arithmetic" k2="-1" k3="1"/>
<feColorMatrix type="matrix" values="0 0 0 0 0 0 0 0 0 0 0 0 0 0 0 0 0 0 0.35 0"/>
<feBlend mode="normal" in2="shape" result="effect1_innerShadow_106_437"/>
<feColorMatrix in="SourceAlpha" type="matrix" values="0 0 0 0 0 0 0 0 0 0 0 0 0 0 0 0 0 0 127 0" result="hardAlpha"/>
<feOffset dx="1" dy="6"/>
<feGaussianBlur stdDeviation="5.6"/>
<feComposite in2="hardAlpha" operator="arithmetic" k2="-1" k3="1"/>
<feColorMatrix type="matrix" values="0 0 0 0 0 0 0 0 0 0 0 0 0 0 0 0 0 0 0.25 0"/>
<feBlend mode="normal" in2="effect1_innerShadow_106_437" result="effect2_innerShadow_106_437"/>
</filter>
<filter id="filter19_ii_106_437" x="1609" y="591" width="273" height="276" filterUnits="userSpaceOnUse" color-interpolation-filters="sRGB">
<feFlood flood-opacity="0" result="BackgroundImageFix"/>
<feBlend mode="normal" in="SourceGraphic" in2="BackgroundImageFix" result="shape"/>
<feColorMatrix in="SourceAlpha" type="matrix" values="0 0 0 0 0 0 0 0 0 0 0 0 0 0 0 0 0 0 127 0" result="hardAlpha"/>
<feOffset dx="7" dy="-12"/>
<feGaussianBlur stdDeviation="6.75"/>
<feComposite in2="hardAlpha" operator="arithmetic" k2="-1" k3="1"/>
<feColorMatrix type="matrix" values="0 0 0 0 0 0 0 0 0 0 0 0 0 0 0 0 0 0 0.35 0"/>
<feBlend mode="normal" in2="shape" result="effect1_innerShadow_106_437"/>
<feColorMatrix in="SourceAlpha" type="matrix" values="0 0 0 0 0 0 0 0 0 0 0 0 0 0 0 0 0 0 127 0" result="hardAlpha"/>
<feOffset dx="1" dy="6"/>
<feGaussianBlur stdDeviation="5.6"/>
<feComposite in2="hardAlpha" operator="arithmetic" k2="-1" k3="1"/>
<feColorMatrix type="matrix" values="0 0 0 0 0 0 0 0 0 0 0 0 0 0 0 0 0 0 0.25 0"/>
<feBlend mode="normal" in2="effect1_innerShadow_106_437" result="effect2_innerShadow_106_437"/>
</filter>
<filter id="filter20_ii_106_437" x="1267" y="787" width="273" height="276" filterUnits="userSpaceOnUse" color-interpolation-filters="sRGB">
<feFlood flood-opacity="0" result="BackgroundImageFix"/>
<feBlend mode="normal" in="SourceGraphic" in2="BackgroundImageFix" result="shape"/>
<feColorMatrix in="SourceAlpha" type="matrix" values="0 0 0 0 0 0 0 0 0 0 0 0 0 0 0 0 0 0 127 0" result="hardAlpha"/>
<feOffset dx="7" dy="-12"/>
<feGaussianBlur stdDeviation="6.75"/>
<feComposite in2="hardAlpha" operator="arithmetic" k2="-1" k3="1"/>
<feColorMatrix type="matrix" values="0 0 0 0 0 0 0 0 0 0 0 0 0 0 0 0 0 0 0.35 0"/>
<feBlend mode="normal" in2="shape" result="effect1_innerShadow_106_437"/>
<feColorMatrix in="SourceAlpha" type="matrix" values="0 0 0 0 0 0 0 0 0 0 0 0 0 0 0 0 0 0 127 0" result="hardAlpha"/>
<feOffset dx="1" dy="6"/>
<feGaussianBlur stdDeviation="5.6"/>
<feComposite in2="hardAlpha" operator="arithmetic" k2="-1" k3="1"/>
<feColorMatrix type="matrix" values="0 0 0 0 0 0 0 0 0 0 0 0 0 0 0 0 0 0 0.25 0"/>
<feBlend mode="normal" in2="effect1_innerShadow_106_437" result="effect2_innerShadow_106_437"/>
</filter>
<filter id="filter21_di_106_437" x="1721.3" y="380.3" width="305.4" height="297.4" filterUnits="userSpaceOnUse" color-interpolation-filters="sRGB">
<feFlood flood-opacity="0" result="BackgroundImageFix"/>
<feColorMatrix in="SourceAlpha" type="matrix" values="0 0 0 0 0 0 0 0 0 0 0 0 0 0 0 0 0 0 127 0" result="hardAlpha"/>
<feOffset dx="16" dy="-10"/>
<feGaussianBlur stdDeviation="9.85"/>
<feComposite in2="hardAlpha" operator="out"/>
<feColorMatrix type="matrix" values="0 0 0 0 0 0 0 0 0 0 0 0 0 0 0 0 0 0 0.4 0"/>
<feBlend mode="normal" in2="BackgroundImageFix" result="effect1_dropShadow_106_437"/>
<feBlend mode="normal" in="SourceGraphic" in2="effect1_dropShadow_106_437" result="shape"/>
<feColorMatrix in="SourceAlpha" type="matrix" values="0 0 0 0 0 0 0 0 0 0 0 0 0 0 0 0 0 0 127 0" result="hardAlpha"/>
<feOffset dx="2" dy="-3"/>
<feGaussianBlur stdDeviation="7.7"/>
<feComposite in2="hardAlpha" operator="arithmetic" k2="-1" k3="1"/>
<feColorMatrix type="matrix" values="0 0 0 0 0 0 0 0 0 0 0 0 0 0 0 0 0 0 0.35 0"/>
<feBlend mode="hard-light" in2="shape" result="effect2_innerShadow_106_437"/>
</filter>
<filter id="filter22_ii_106_437" x="1495" y="399" width="273" height="276" filterUnits="userSpaceOnUse" color-interpolation-filters="sRGB">
<feFlood flood-opacity="0" result="BackgroundImageFix"/>
<feBlend mode="normal" in="SourceGraphic" in2="BackgroundImageFix" result="shape"/>
<feColorMatrix in="SourceAlpha" type="matrix" values="0 0 0 0 0 0 0 0 0 0 0 0 0 0 0 0 0 0 127 0" result="hardAlpha"/>
<feOffset dx="7" dy="-12"/>
<feGaussianBlur stdDeviation="6.75"/>
<feComposite in2="hardAlpha" operator="arithmetic" k2="-1" k3="1"/>
<feColorMatrix type="matrix" values="0 0 0 0 0 0 0 0 0 0 0 0 0 0 0 0 0 0 0.35 0"/>
<feBlend mode="normal" in2="shape" result="effect1_innerShadow_106_437"/>
<feColorMatrix in="SourceAlpha" type="matrix" values="0 0 0 0 0 0 0 0 0 0 0 0 0 0 0 0 0 0 127 0" result="hardAlpha"/>
<feOffset dx="1" dy="6"/>
<feGaussianBlur stdDeviation="5.6"/>
<feComposite in2="hardAlpha" operator="arithmetic" k2="-1" k3="1"/>
<feColorMatrix type="matrix" values="0 0 0 0 0 0 0 0 0 0 0 0 0 0 0 0 0 0 0.25 0"/>
<feBlend mode="normal" in2="effect1_innerShadow_106_437" result="effect2_innerShadow_106_437"/>
</filter>
<filter id="filter23_di_106_437" x="1720.3" y="-0.700001" width="305.4" height="297.4" filterUnits="userSpaceOnUse" color-interpolation-filters="sRGB">
<feFlood flood-opacity="0" result="BackgroundImageFix"/>
<feColorMatrix in="SourceAlpha" type="matrix" values="0 0 0 0 0 0 0 0 0 0 0 0 0 0 0 0 0 0 127 0" result="hardAlpha"/>
<feOffset dx="16" dy="-10"/>
<feGaussianBlur stdDeviation="9.85"/>
<feComposite in2="hardAlpha" operator="out"/>
<feColorMatrix type="matrix" values="0 0 0 0 0 0 0 0 0 0 0 0 0 0 0 0 0 0 0.4 0"/>
<feBlend mode="normal" in2="BackgroundImageFix" result="effect1_dropShadow_106_437"/>
<feBlend mode="normal" in="SourceGraphic" in2="effect1_dropShadow_106_437" result="shape"/>
<feColorMatrix in="SourceAlpha" type="matrix" values="0 0 0 0 0 0 0 0 0 0 0 0 0 0 0 0 0 0 127 0" result="hardAlpha"/>
<feOffset dx="2" dy="-3"/>
<feGaussianBlur stdDeviation="7.7"/>
<feComposite in2="hardAlpha" operator="arithmetic" k2="-1" k3="1"/>
<feColorMatrix type="matrix" values="0 0 0 0 0 0 0 0 0 0 0 0 0 0 0 0 0 0 0.35 0"/>
<feBlend mode="hard-light" in2="shape" result="effect2_innerShadow_106_437"/>
</filter>
<filter id="filter24_di_106_437" x="1490.3" y="-0.700001" width="305.4" height="297.4" filterUnits="userSpaceOnUse" color-interpolation-filters="sRGB">
<feFlood flood-opacity="0" result="BackgroundImageFix"/>
<feColorMatrix in="SourceAlpha" type="matrix" values="0 0 0 0 0 0 0 0 0 0 0 0 0 0 0 0 0 0 127 0" result="hardAlpha"/>
<feOffset dx="16" dy="-10"/>
<feGaussianBlur stdDeviation="9.85"/>
<feComposite in2="hardAlpha" operator="out"/>
<feColorMatrix type="matrix" values="0 0 0 0 0 0 0 0 0 0 0 0 0 0 0 0 0 0 0.4 0"/>
<feBlend mode="normal" in2="BackgroundImageFix" result="effect1_dropShadow_106_437"/>
<feBlend mode="normal" in="SourceGraphic" in2="effect1_dropShadow_106_437" result="shape"/>
<feColorMatrix in="SourceAlpha" type="matrix" values="0 0 0 0 0 0 0 0 0 0 0 0 0 0 0 0 0 0 127 0" result="hardAlpha"/>
<feOffset dx="2" dy="-3"/>
<feGaussianBlur stdDeviation="7.7"/>
<feComposite in2="hardAlpha" operator="arithmetic" k2="-1" k3="1"/>
<feColorMatrix type="matrix" values="0 0 0 0 0 0 0 0 0 0 0 0 0 0 0 0 0 0 0.35 0"/>
<feBlend mode="hard-light" in2="shape" result="effect2_innerShadow_106_437"/>
</filter>
</defs>
</svg>
