<svg width="201" height="200" viewBox="0 0 201 200" fill="none" xmlns="http://www.w3.org/2000/svg">
<g clip-path="url(#clip0_74_39)" filter="url(#filter0_d_74_39)">
<g filter="url(#filter1_i_74_39)">
<path d="M37.8488 115.305C36.887 115.316 35.9251 115.326 34.9633 115.339C30.2307 115.405 25.4931 115.366 20.7679 115.589C18.8473 115.68 16.9643 115.646 15.2059 115.019C13.7231 114.491 12.3183 113.618 11.0396 112.678C9.79722 111.765 8.50951 110.733 7.69979 109.462C6.845 108.12 6.28705 106.471 6.03718 104.888C5.6304 102.309 5.42878 99.6751 5.42848 97.0644C5.42826 95.1418 5.42399 93.1487 6.31668 91.3204C6.50798 90.9285 6.47481 90.431 6.56951 89.9874C7.03959 87.7856 8.15992 85.9859 9.92423 84.5848C10.3073 84.2807 10.6872 83.9701 11.0457 83.6378C13.1401 81.6964 15.6844 81.259 18.4304 81.2615C43.8894 81.2841 69.3484 81.2748 94.8074 81.2748C95.1681 81.2748 95.5289 81.2748 95.9526 81.2748C95.9526 92.6265 95.9526 103.925 95.9526 115.334C79.6332 115.334 63.3152 115.334 46.9075 115.249C47.3925 114.049 47.9152 112.903 48.5546 111.826C49.4461 110.325 50.3293 108.803 51.3844 107.417C54.3002 103.59 55.1233 99.3809 53.2451 94.9811C50.8141 89.2861 45.7798 87.149 40.2806 87.9545C35.8363 88.6055 32.6275 91.4183 31.0265 95.7596C30.4097 97.432 30.2857 99.1724 30.443 100.969C30.6158 102.942 31.2696 104.797 32.436 106.247C33.987 108.175 35.2724 110.221 36.4102 112.387C36.9145 113.347 37.3708 114.332 37.8488 115.305Z" fill="#E9AF43"/>
<path d="M82.0718 56.5734C86.7462 56.5734 91.321 56.5734 95.9558 56.5734C95.9558 64.2129 95.9558 71.7926 95.9558 79.4818C95.5601 79.4818 95.1733 79.4818 94.7866 79.4818C70.3262 79.4818 45.8658 79.4818 21.4055 79.4818C20.2426 79.4818 19.0795 79.4953 17.9169 79.477C17.1211 79.4646 16.7264 79.0386 16.731 78.2321C16.7391 76.8319 16.7076 75.431 16.7389 74.0313C16.7906 71.717 17.0069 69.4301 17.879 67.2455C18.6171 65.3966 19.6098 63.7177 20.9348 62.229C22.8073 60.1251 25.1888 58.8474 27.739 57.7365C29.9246 56.7843 32.1572 56.5651 34.4785 56.5669C50.3097 56.5794 66.141 56.5734 82.0718 56.5734Z" fill="#E9AF43"/>
<path d="M45.6454 117.763C45.91 117.752 46.1746 117.73 46.4393 117.73C62.6379 117.729 78.8365 117.729 95.0351 117.729C95.3268 117.729 95.6185 117.729 95.9627 117.729C95.9627 124.985 95.9627 132.167 95.9627 139.442C95.6075 139.442 95.2849 139.442 94.9624 139.442C76.4734 139.442 57.9844 139.458 39.4955 139.424C36.7684 139.419 34.0414 139.181 31.3153 139.034C31.0671 139.021 30.809 138.918 30.5836 138.802C29.3052 138.144 27.9709 137.567 26.7784 136.778C25.1216 135.681 23.7615 134.293 22.6129 132.6C21.5141 130.982 20.7958 129.261 20.2083 127.452C19.6459 125.721 19.1435 123.981 19.3007 122.102C19.4139 120.749 19.3091 119.378 19.3284 118.015C19.3387 117.29 19.6411 117.157 20.2788 117.548C20.5553 117.717 20.9617 117.721 21.3093 117.722C27.1513 117.733 32.9933 117.731 38.9373 117.82C39.9245 119.378 39.8672 121.016 39.8167 122.681C39.3088 123.188 39.3713 123.637 40.0148 123.674C41.4007 123.753 42.7961 123.739 44.1834 123.674C44.6525 123.652 45.2225 123.426 44.766 122.627C44.7448 120.886 44.8394 119.26 45.6454 117.763ZM39.6951 124.53C39.2253 125.005 39.319 125.432 39.9639 125.465C41.4039 125.537 42.853 125.54 44.2924 125.461C44.8825 125.429 45.34 125.074 44.4891 124.378C42.9363 124.404 41.3836 124.43 39.6951 124.53ZM42.886 126.293C42.1619 126.293 41.4334 126.248 40.7156 126.316C40.4321 126.343 40.1725 126.622 39.902 126.786C40.1854 126.954 40.4589 127.244 40.7541 127.268C41.5716 127.335 42.3999 127.324 43.2202 127.278C43.6078 127.255 43.9866 127.081 44.3694 126.975C44.3754 126.832 44.3814 126.688 44.3873 126.544C43.9481 126.46 43.5089 126.377 42.886 126.293Z" fill="#E9AF43"/>
<path d="M61.753 54.7806C51.9263 54.7806 42.1992 54.7808 32.4722 54.7803C31.323 54.7803 31.057 54.5954 31.0931 53.4259C31.1607 51.2354 31.1003 49.0447 31.6159 46.8682C32.0497 45.037 32.7024 43.3424 33.4913 41.6362C34.6388 39.1545 36.4651 37.2561 38.4841 35.6301C40.4144 34.0755 42.7568 33.0674 45.3692 33.0674C61.8055 33.0675 78.2418 33.0675 94.678 33.0675C95.0748 33.0675 95.4716 33.0675 95.9421 33.0675C95.9421 40.2825 95.9421 47.4655 95.9421 54.7806C84.5962 54.7806 73.2244 54.7806 61.753 54.7806Z" fill="#E9AF43"/>
<path d="M35.1916 152.635C34.7914 151.201 34.3308 149.846 34.1175 148.453C33.807 146.426 33.6684 144.373 33.4692 142.329C33.3901 141.517 33.8012 141.221 34.5934 141.226C37.9128 141.247 41.2324 141.224 44.5518 141.237C61.3343 141.299 78.1169 141.368 94.8994 141.434C95.228 141.435 95.5565 141.434 95.95 141.434C95.95 148.797 95.95 156.112 95.95 163.546C95.6031 163.546 95.2507 163.546 94.8983 163.546C80.4918 163.546 66.0853 163.555 51.6788 163.536C49.3947 163.533 47.0338 163.352 44.9863 162.439C42.8499 161.488 40.6468 160.533 38.9537 158.663C37.3286 156.868 36.2615 154.82 35.1916 152.635Z" fill="#E9AF43"/>
<path d="M66.9323 31.0755C61.0569 31.0755 55.2812 31.075 49.5054 31.0769C49.1744 31.077 48.8383 31.0637 48.5134 31.1142C47.7131 31.2386 47.1561 30.8645 47.2295 30.0631C47.3777 28.4441 47.5767 26.8255 47.8514 25.2233C48.3302 22.4306 49.5248 19.863 50.8907 17.4459C52.6049 14.4124 55.3031 12.3197 58.35 10.6011C59.7035 9.83762 61.0977 9.17099 62.5315 8.74268C65.0883 7.97888 67.7428 7.54167 70.3572 6.97106C71.8654 6.64188 73.3642 6.24902 74.8873 6.01546C76.0834 5.83205 77.3095 5.83497 78.5234 5.77957C81.6147 5.63848 84.7055 5.46637 87.7986 5.39172C90.4888 5.32679 93.1818 5.3782 95.9446 5.3782C95.9446 13.9255 95.9446 22.4356 95.9446 31.0755C86.3211 31.0755 76.6765 31.0755 66.9323 31.0755Z" fill="#E9AF43"/>
<path d="M78.9517 189.977C77.2838 189.768 75.6871 189.645 74.1033 189.428C73.0535 189.284 72.022 189.005 70.9826 188.785C68.011 188.158 65.1338 187.231 62.3391 186.046C60.3028 185.183 58.4073 184.045 56.8004 182.551C54.6251 180.528 52.883 178.136 51.7594 175.359C50.9344 173.321 50.1997 171.252 50.1795 168.996C50.173 168.264 49.938 167.535 49.8199 166.802C49.6821 165.946 50.3232 165.582 50.9249 165.405C51.4697 165.244 52.1066 165.339 52.6952 165.398C53.3978 165.468 54.0921 165.721 54.7903 165.722C68.0973 165.742 81.4043 165.737 94.7113 165.737C95.1052 165.737 95.4991 165.737 95.9538 165.737C95.9538 174.036 95.9538 182.279 95.9538 190.637C94.5722 190.637 93.1906 190.637 91.809 190.637C89.7133 190.637 87.6174 190.658 85.5221 190.628C84.5736 190.614 83.6121 190.363 82.6821 190.462C81.4069 190.597 80.2626 190.002 78.9517 189.977Z" fill="#E9AF43"/>
</g>
<g filter="url(#filter2_i_74_39)">
<path d="M103.586 122.908C103.586 111.331 103.586 99.8536 103.586 88.3713C106.075 88.3713 108.447 88.3682 110.82 88.3747C111.182 88.3757 111.544 88.4426 111.906 88.4428C118.479 88.4472 125.053 88.4563 131.626 88.4324C132.403 88.4296 132.873 88.6814 133.333 89.3288C135.215 91.9754 137.188 94.5566 139.096 97.1846C140.521 99.1472 141.937 101.119 143.286 103.134C144.503 104.954 146.055 105.873 148.325 105.808C152.24 105.696 156.16 105.792 160.077 105.763C160.79 105.758 161.149 105.916 161.458 106.651C161.737 107.317 162.355 107.949 162.983 108.339C164.513 109.291 166.244 109.943 167.695 110.991C169.804 112.514 171.686 112.206 173.679 110.879C174.963 110.024 176.301 109.244 177.656 108.504C178.649 107.962 179.056 107.124 179.073 106.081C179.107 103.956 179.136 101.829 179.062 99.707C179.022 98.5665 178.644 97.5683 177.459 96.9755C175.611 96.0522 173.814 95.0247 172.029 93.9837C170.899 93.3249 169.939 93.4222 168.839 94.1347C166.743 95.4912 164.557 96.7081 162.413 97.9907C162.19 98.1242 161.888 98.269 161.811 98.4783C161.436 99.4863 160.642 99.419 159.795 99.4127C156.409 99.3873 153.022 99.3725 149.637 99.4214C148.695 99.435 148.135 99.2 147.586 98.3453C146.169 96.1385 144.6 94.026 143.044 91.9116C140.925 89.0333 138.778 86.1751 136.606 83.3361C135.872 82.3757 134.765 82.0814 133.611 82.0792C126.207 82.0647 118.804 82.0718 111.4 82.0719C108.856 82.0719 106.313 82.0719 103.677 82.0719C103.677 69.653 103.677 57.0996 103.677 44.5497C106.347 44.5497 108.986 44.5469 111.624 44.5528C111.986 44.5536 112.348 44.6177 112.711 44.6182C116.296 44.6234 119.882 44.6314 123.467 44.6123C124.122 44.6088 124.482 44.725 124.785 45.4423C125.078 46.1343 125.719 46.7881 126.372 47.1966C127.898 48.1525 129.632 48.801 131.083 49.8498C133.159 51.351 135.013 51.0467 136.977 49.7531C138.266 48.9045 139.598 48.1142 140.955 47.3793C141.944 46.8436 142.397 46.0281 142.417 44.9813C142.458 42.824 142.486 40.6634 142.407 38.5083C142.365 37.3674 141.953 36.3894 140.767 35.7993C138.86 34.8496 137.021 33.7586 135.163 32.7104C134.162 32.1457 133.274 32.29 132.315 32.8934C130.173 34.2406 127.977 35.5029 125.808 36.8061C125.584 36.9403 125.279 37.0739 125.195 37.2819C124.764 38.3396 123.909 38.2618 122.999 38.2585C116.924 38.236 110.848 38.2468 104.772 38.2468C104.417 38.2468 104.062 38.2468 103.586 38.2468C103.586 37.7698 103.586 37.4148 103.586 37.0597C103.586 27.2657 103.585 17.4717 103.586 7.67772C103.587 5.55998 104.381 4.78133 106.536 4.78116C118.222 4.78021 129.909 4.80243 141.595 4.75543C143.203 4.74896 144.231 5.29488 145.016 6.70139C147.947 11.9507 150.942 17.1637 153.932 22.38C156.643 27.1104 159.389 31.8207 162.098 36.5524C163.99 39.8584 165.853 43.1813 167.701 46.5126C167.82 46.7277 167.796 47.149 167.66 47.3586C166.713 48.8196 165.854 50.3693 164.713 51.6665C162.008 54.7402 159.858 58.204 157.485 61.5109C155.879 63.7484 154.255 65.9731 152.591 68.2705C152.464 68.1954 152.277 68.0936 152.099 67.9781C150.777 67.1216 149.533 66.9575 148.103 67.9299C146.121 69.2769 144.017 70.4455 141.942 71.6505C141.034 72.1778 140.676 72.9867 140.651 73.9443C140.606 75.7028 140.593 77.4648 140.654 79.2223C140.697 80.4782 141.26 81.4692 142.439 82.0805C144.041 82.9108 145.722 83.6475 147.174 84.6952C149.282 86.2165 151.164 85.9139 153.158 84.5864C154.442 83.7315 155.78 82.9505 157.135 82.2113C158.128 81.6696 158.537 80.8324 158.554 79.7894C158.59 77.6652 158.565 75.54 158.565 73.4152C158.565 73.2825 158.607 73.1185 158.546 73.0218C157.52 71.3951 158.862 70.4615 159.619 69.3728C160.481 68.1347 161.392 66.9316 162.261 65.6991C163.565 63.8508 164.863 61.9985 166.141 60.1326C167.681 57.8835 169.198 55.6177 170.728 53.3616C170.837 53.2007 170.976 53.0599 171.189 52.8032C172.107 54.336 173.008 55.7946 173.864 57.2787C176.639 62.0864 179.406 66.8981 182.158 71.7186C183.965 74.8847 185.726 78.0776 187.535 81.2428C190.338 86.1483 193.148 91.0508 195.995 95.9314C196.736 97.2022 196.926 98.3619 196.09 99.6796C195.052 101.316 194.131 103.026 193.164 104.708C191.365 107.839 189.587 110.982 187.769 114.103C185.502 117.994 183.184 121.856 180.925 125.752C179.278 128.592 177.722 131.484 176.07 134.32C173.737 138.325 171.324 142.284 168.996 146.292C166.306 150.921 163.679 155.588 161.008 160.228C159.729 162.45 158.395 164.64 157.113 166.859C155.486 169.673 153.904 172.513 152.271 175.322C150.205 178.874 148.095 182.4 146.029 185.952C145.305 187.199 144.662 188.493 143.972 189.759C143.361 190.879 142.334 191.414 141.132 191.417C129.512 191.444 117.892 191.441 106.272 191.426C104.529 191.423 103.588 190.341 103.587 188.457C103.584 177.932 103.586 167.408 103.586 156.883C103.586 154.659 103.586 152.435 103.586 150.21C103.586 149.853 103.586 149.497 103.586 149.004C104.08 149.004 104.466 149.004 104.853 149.004C110.297 149.004 115.743 148.95 121.187 149.028C123.624 149.063 125.255 148.068 126.525 146.023C127.907 143.799 129.535 141.727 131.034 139.574C132.139 137.985 133.197 136.364 134.3 134.774C134.916 133.885 135.568 133.019 136.233 132.166C136.341 132.028 136.611 131.924 136.788 131.946C138.61 132.173 140.429 132.423 142.247 132.678C144.261 132.96 146.273 133.252 148.458 133.565C147.671 135.001 146.913 136.386 146.09 137.888C144.847 137.05 143.825 137.724 142.768 138.375C140.781 139.597 138.78 140.799 136.762 141.97C135.853 142.496 135.497 143.306 135.472 144.264C135.427 146.022 135.414 147.784 135.475 149.542C135.518 150.798 136.082 151.788 137.261 152.399C138.863 153.23 140.544 153.966 141.995 155.014C144.103 156.536 145.985 156.232 147.979 154.905C149.263 154.05 150.601 153.269 151.956 152.53C152.949 151.988 153.358 151.151 153.375 150.108C153.41 147.983 153.398 145.858 153.381 143.733C153.371 142.534 152.803 141.623 151.659 140.893C152.764 138.852 153.884 136.816 154.971 134.761C155.474 133.809 156.011 132.855 156.354 131.841C156.951 130.082 155.644 128.259 154.067 128.064C151.823 127.788 149.589 127.421 147.351 127.088C145.858 126.867 144.368 126.625 142.873 126.416C141.508 126.226 140.142 126.01 138.769 125.914C137.705 125.84 137.087 125.445 136.666 124.399C135.587 121.721 134.366 119.101 133.183 116.416C134.543 115.834 134.895 114.682 134.869 113.289C134.835 111.497 134.866 109.703 134.859 107.911C134.853 106.517 134.498 105.364 133.096 104.663C131.19 103.71 129.349 102.625 127.483 101.591C126.706 101.16 125.934 101.11 125.153 101.579C122.843 102.966 120.541 104.369 118.215 105.73C117.307 106.261 116.969 107.078 116.945 108.034C116.903 109.759 116.894 111.488 116.945 113.213C116.985 114.553 117.592 115.554 118.845 116.2C120.565 117.086 122.221 118.093 123.922 119.017C124.925 119.562 125.912 120.194 127.171 119.746C127.373 119.674 127.856 119.912 127.962 120.127C128.583 121.391 129.13 122.691 129.705 123.977C130.292 125.291 130.883 126.602 131.436 127.834C130.424 129.351 129.483 130.815 128.486 132.24C127.208 134.067 125.877 135.857 124.584 137.673C123.633 139.008 122.744 140.389 121.747 141.689C121.43 142.103 120.859 142.583 120.399 142.589C114.988 142.65 109.577 142.627 104.165 142.624C104.034 142.624 103.902 142.596 103.586 142.56C103.586 136.05 103.586 129.529 103.586 122.908Z" fill="#164090"/>
<path d="M167.733 99.8016C167.887 99.7267 167.969 99.67 168.057 99.6235C169.002 99.1214 170.041 98.0948 170.871 98.2424C172.144 98.4686 173.283 99.4879 174.452 100.213C174.613 100.313 174.685 100.657 174.69 100.889C174.712 102.147 174.729 103.406 174.679 104.663C174.667 104.956 174.461 105.349 174.22 105.508C173.236 106.157 172.219 106.761 171.18 107.318C170.912 107.461 170.455 107.499 170.195 107.368C168.735 106.632 167.295 105.854 165.886 105.026C165.617 104.868 165.516 104.424 165.341 104.11C165.327 104.085 165.345 104.044 165.338 104.012C164.914 101.95 165.662 100.54 167.733 99.8016Z" fill="#164090"/>
<path d="M128.494 114.143C127.896 114.495 127.384 114.858 126.83 115.137C126.606 115.249 126.236 115.278 126.024 115.169C124.541 114.405 123.07 113.615 121.628 112.778C121.379 112.634 121.282 112.228 121.119 111.94C121.104 111.915 121.12 111.875 121.116 111.842C120.835 109.968 121.132 108.396 123.229 107.74C123.474 107.664 123.688 107.489 123.919 107.364C124.832 106.87 125.849 105.852 126.638 106.005C127.914 106.251 129.048 107.256 130.223 107.974C130.369 108.064 130.462 108.351 130.465 108.549C130.486 109.873 130.501 111.198 130.456 112.521C130.447 112.782 130.227 113.11 130.006 113.274C129.561 113.604 129.049 113.843 128.494 114.143Z" fill="#164090"/>
<path d="M134.61 37.1264C135.593 37.7268 136.496 38.3315 137.457 38.8227C137.968 39.0836 138.066 39.4127 138.055 39.9143C138.031 41.0728 138.023 42.2329 138.059 43.3908C138.075 43.9202 137.906 44.2019 137.421 44.4565C136.436 44.9739 135.52 45.6233 134.541 46.1541C134.273 46.2994 133.816 46.3472 133.558 46.2172C132.097 45.4824 130.657 44.7048 129.246 43.8788C128.975 43.7202 128.868 43.282 128.688 42.9709C128.674 42.9459 128.69 42.905 128.685 42.8727C128.373 40.9702 128.795 39.5115 130.825 38.7629C131.826 38.3941 132.697 37.6853 133.653 37.1811C133.901 37.0504 134.25 37.1108 134.61 37.1264Z" fill="#164090"/>
<path d="M149.004 148.348C149.088 149.026 148.897 149.384 148.317 149.674C147.321 150.172 146.407 150.832 145.428 151.367C145.186 151.499 144.768 151.529 144.53 151.409C143.095 150.688 141.669 149.943 140.29 149.123C139.975 148.936 139.735 148.445 139.662 148.056C139.305 146.159 139.749 144.692 141.783 143.941C142.786 143.571 143.655 142.853 144.619 142.36C144.881 142.226 145.33 142.215 145.586 142.35C146.572 142.871 147.536 143.442 148.46 144.066C148.725 144.244 148.961 144.655 148.979 144.973C149.043 146.064 149.004 147.161 149.004 148.348Z" fill="#164090"/>
<path d="M144.93 74.9299C146.418 74.0054 147.866 73.1649 149.281 72.2727C149.961 71.8444 150.561 71.6866 151.21 72.3041C151.443 72.526 151.734 72.7122 152.032 72.8364C154.863 74.0179 154.145 76.4903 154.16 78.6882C154.161 78.8356 153.997 79.0374 153.854 79.1243C152.761 79.7911 151.664 80.4533 150.543 81.0718C150.327 81.1912 149.947 81.218 149.735 81.1087C148.249 80.3434 146.776 79.5521 145.331 78.7136C145.083 78.5693 144.859 78.1661 144.846 77.8722C144.801 76.9149 144.858 75.9529 144.93 74.9299Z" fill="#164090"/>
</g>
<path d="M37.9413 115.321C37.3708 114.332 36.9145 113.347 36.4103 112.387C35.2724 110.221 33.987 108.175 32.4361 106.247C31.2696 104.797 30.6159 102.942 30.4431 100.969C30.2857 99.1725 30.4098 97.4321 31.0265 95.7597C32.6275 91.4184 35.8363 88.6056 40.2807 87.9546C45.7798 87.1491 50.8142 89.2862 53.2452 94.9812C55.1233 99.3811 54.3002 103.59 51.3845 107.418C50.3294 108.803 49.4461 110.325 48.5546 111.826C47.9153 112.903 47.3925 114.049 46.8152 115.235C43.8863 115.316 40.96 115.326 37.9413 115.321Z" fill="#FFFFFE"/>
<path d="M45.5508 117.747C44.8394 119.261 44.7448 120.886 44.7137 122.62C44.5735 122.69 44.5047 122.675 44.363 122.62C42.9347 122.604 41.5793 122.627 40.1669 122.657C40.0338 122.657 39.9577 122.649 39.8815 122.641C39.8673 121.016 39.9245 119.378 39.0277 117.836C41.1628 117.753 43.3095 117.742 45.5508 117.747Z" fill="#FFFEFE"/>
<path d="M44.6322 124.462C45.3399 125.075 44.8824 125.43 44.2923 125.462C42.8529 125.54 41.4039 125.537 39.9638 125.465C39.3189 125.433 39.2252 125.005 39.8563 124.508C41.5558 124.478 43.094 124.47 44.6322 124.462Z" fill="#185490"/>
<path d="M39.8167 122.681C39.9576 122.649 40.0337 122.657 40.259 122.68C41.7507 122.684 43.0933 122.672 44.4359 122.66C44.5046 122.675 44.5734 122.69 44.6944 122.712C45.2224 123.426 44.6525 123.652 44.1833 123.674C42.796 123.739 41.4006 123.753 40.0148 123.674C39.3713 123.637 39.3087 123.188 39.8167 122.681Z" fill="#185590"/>
<path d="M42.9778 126.293C43.5089 126.377 43.9481 126.461 44.3874 126.544C44.3814 126.688 44.3754 126.832 44.3695 126.976C43.9867 127.081 43.6078 127.256 43.2202 127.278C42.4 127.325 41.5716 127.336 40.7542 127.269C40.4589 127.244 40.1854 126.955 39.902 126.786C40.1725 126.622 40.4321 126.343 40.7157 126.316C41.4334 126.248 42.1619 126.294 42.9778 126.293Z" fill="#195590"/>
<path d="M44.5606 124.419C43.094 124.467 41.5558 124.475 39.9242 124.469C41.3836 124.43 42.9363 124.404 44.5606 124.419Z" fill="#C29766"/>
<path d="M44.363 122.62C43.0934 122.67 41.7508 122.682 40.316 122.671C41.5793 122.627 42.9346 122.604 44.363 122.62Z" fill="#D3D1D5"/>
</g>
<defs>
<filter id="filter0_d_74_39" x="-4" y="0" width="208" height="208" filterUnits="userSpaceOnUse" color-interpolation-filters="sRGB">
<feFlood flood-opacity="0" result="BackgroundImageFix"/>
<feColorMatrix in="SourceAlpha" type="matrix" values="0 0 0 0 0 0 0 0 0 0 0 0 0 0 0 0 0 0 127 0" result="hardAlpha"/>
<feOffset dy="4"/>
<feGaussianBlur stdDeviation="2"/>
<feComposite in2="hardAlpha" operator="out"/>
<feColorMatrix type="matrix" values="0 0 0 0 0 0 0 0 0 0 0 0 0 0 0 0 0 0 0.25 0"/>
<feBlend mode="normal" in2="BackgroundImageFix" result="effect1_dropShadow_74_39"/>
<feBlend mode="normal" in="SourceGraphic" in2="effect1_dropShadow_74_39" result="shape"/>
</filter>
<filter id="filter1_i_74_39" x="5.42847" y="5.35889" width="90.5343" height="189.286" filterUnits="userSpaceOnUse" color-interpolation-filters="sRGB">
<feFlood flood-opacity="0" result="BackgroundImageFix"/>
<feBlend mode="normal" in="SourceGraphic" in2="BackgroundImageFix" result="shape"/>
<feColorMatrix in="SourceAlpha" type="matrix" values="0 0 0 0 0 0 0 0 0 0 0 0 0 0 0 0 0 0 127 0" result="hardAlpha"/>
<feOffset dy="4"/>
<feGaussianBlur stdDeviation="3"/>
<feComposite in2="hardAlpha" operator="arithmetic" k2="-1" k3="1"/>
<feColorMatrix type="matrix" values="0 0 0 0 1 0 0 0 0 1 0 0 0 0 1 0 0 0 0.8 0"/>
<feBlend mode="normal" in2="shape" result="effect1_innerShadow_74_39"/>
</filter>
<filter id="filter2_i_74_39" x="101.585" y="4.75537" width="95.053" height="188.682" filterUnits="userSpaceOnUse" color-interpolation-filters="sRGB">
<feFlood flood-opacity="0" result="BackgroundImageFix"/>
<feBlend mode="normal" in="SourceGraphic" in2="BackgroundImageFix" result="shape"/>
<feColorMatrix in="SourceAlpha" type="matrix" values="0 0 0 0 0 0 0 0 0 0 0 0 0 0 0 0 0 0 127 0" result="hardAlpha"/>
<feOffset dx="-2" dy="3"/>
<feGaussianBlur stdDeviation="1"/>
<feComposite in2="hardAlpha" operator="arithmetic" k2="-1" k3="1"/>
<feColorMatrix type="matrix" values="0 0 0 0 0 0 0 0 0 0 0 0 0 0 0 0 0 0 0.3 0"/>
<feBlend mode="normal" in2="shape" result="effect1_innerShadow_74_39"/>
</filter>
<clipPath id="clip0_74_39">
<rect width="200" height="200" fill="white"/>
</clipPath>
</defs>
</svg>
